G75*
%MOIN*%
%OFA0B0*%
%FSLAX25Y25*%
%IPPOS*%
%LPD*%
%AMOC8*
5,1,8,0,0,1.08239X$1,22.5*
%
%ADD10C,0.00875*%
%ADD11R,0.03150X0.03150*%
%ADD12C,0.01000*%
%ADD13R,0.08700X0.02400*%
D10*
X0017510Y0032813D02*
X0020136Y0032813D01*
X0020136Y0030187D01*
X0017510Y0030187D01*
X0017510Y0032813D01*
X0017510Y0031061D02*
X0020136Y0031061D01*
X0020136Y0031935D02*
X0017510Y0031935D01*
X0017510Y0032809D02*
X0020136Y0032809D01*
X0023510Y0032813D02*
X0026136Y0032813D01*
X0026136Y0030187D01*
X0023510Y0030187D01*
X0023510Y0032813D01*
X0023510Y0031061D02*
X0026136Y0031061D01*
X0026136Y0031935D02*
X0023510Y0031935D01*
X0023510Y0032809D02*
X0026136Y0032809D01*
X0040636Y0037187D02*
X0040636Y0039813D01*
X0040636Y0037187D02*
X0038010Y0037187D01*
X0038010Y0039813D01*
X0040636Y0039813D01*
X0040636Y0038061D02*
X0038010Y0038061D01*
X0038010Y0038935D02*
X0040636Y0038935D01*
X0040636Y0039809D02*
X0038010Y0039809D01*
X0040636Y0043187D02*
X0040636Y0045813D01*
X0040636Y0043187D02*
X0038010Y0043187D01*
X0038010Y0045813D01*
X0040636Y0045813D01*
X0040636Y0044061D02*
X0038010Y0044061D01*
X0038010Y0044935D02*
X0040636Y0044935D01*
X0040636Y0045809D02*
X0038010Y0045809D01*
X0040636Y0057187D02*
X0040636Y0059813D01*
X0040636Y0057187D02*
X0038010Y0057187D01*
X0038010Y0059813D01*
X0040636Y0059813D01*
X0040636Y0058061D02*
X0038010Y0058061D01*
X0038010Y0058935D02*
X0040636Y0058935D01*
X0040636Y0059809D02*
X0038010Y0059809D01*
X0040636Y0063187D02*
X0040636Y0065813D01*
X0040636Y0063187D02*
X0038010Y0063187D01*
X0038010Y0065813D01*
X0040636Y0065813D01*
X0040636Y0064061D02*
X0038010Y0064061D01*
X0038010Y0064935D02*
X0040636Y0064935D01*
X0040636Y0065809D02*
X0038010Y0065809D01*
X0070010Y0060313D02*
X0072636Y0060313D01*
X0072636Y0057687D01*
X0070010Y0057687D01*
X0070010Y0060313D01*
X0070010Y0058561D02*
X0072636Y0058561D01*
X0072636Y0059435D02*
X0070010Y0059435D01*
X0070010Y0060309D02*
X0072636Y0060309D01*
X0076010Y0060313D02*
X0078636Y0060313D01*
X0078636Y0057687D01*
X0076010Y0057687D01*
X0076010Y0060313D01*
X0076010Y0058561D02*
X0078636Y0058561D01*
X0078636Y0059435D02*
X0076010Y0059435D01*
X0076010Y0060309D02*
X0078636Y0060309D01*
X0090636Y0060813D02*
X0090636Y0058187D01*
X0088010Y0058187D01*
X0088010Y0060813D01*
X0090636Y0060813D01*
X0090636Y0059061D02*
X0088010Y0059061D01*
X0088010Y0059935D02*
X0090636Y0059935D01*
X0090636Y0060809D02*
X0088010Y0060809D01*
X0090636Y0054813D02*
X0090636Y0052187D01*
X0088010Y0052187D01*
X0088010Y0054813D01*
X0090636Y0054813D01*
X0090636Y0053061D02*
X0088010Y0053061D01*
X0088010Y0053935D02*
X0090636Y0053935D01*
X0090636Y0054809D02*
X0088010Y0054809D01*
X0090636Y0045813D02*
X0090636Y0043187D01*
X0088010Y0043187D01*
X0088010Y0045813D01*
X0090636Y0045813D01*
X0090636Y0044061D02*
X0088010Y0044061D01*
X0088010Y0044935D02*
X0090636Y0044935D01*
X0090636Y0045809D02*
X0088010Y0045809D01*
X0090636Y0039813D02*
X0090636Y0037187D01*
X0088010Y0037187D01*
X0088010Y0039813D01*
X0090636Y0039813D01*
X0090636Y0038061D02*
X0088010Y0038061D01*
X0088010Y0038935D02*
X0090636Y0038935D01*
X0090636Y0039809D02*
X0088010Y0039809D01*
X0100010Y0042813D02*
X0102636Y0042813D01*
X0102636Y0040187D01*
X0100010Y0040187D01*
X0100010Y0042813D01*
X0100010Y0041061D02*
X0102636Y0041061D01*
X0102636Y0041935D02*
X0100010Y0041935D01*
X0100010Y0042809D02*
X0102636Y0042809D01*
X0106010Y0042813D02*
X0108636Y0042813D01*
X0108636Y0040187D01*
X0106010Y0040187D01*
X0106010Y0042813D01*
X0106010Y0041061D02*
X0108636Y0041061D01*
X0108636Y0041935D02*
X0106010Y0041935D01*
X0106010Y0042809D02*
X0108636Y0042809D01*
X0108636Y0032813D02*
X0106010Y0032813D01*
X0108636Y0032813D02*
X0108636Y0030187D01*
X0106010Y0030187D01*
X0106010Y0032813D01*
X0106010Y0031061D02*
X0108636Y0031061D01*
X0108636Y0031935D02*
X0106010Y0031935D01*
X0106010Y0032809D02*
X0108636Y0032809D01*
X0102636Y0032813D02*
X0100010Y0032813D01*
X0102636Y0032813D02*
X0102636Y0030187D01*
X0100010Y0030187D01*
X0100010Y0032813D01*
X0100010Y0031061D02*
X0102636Y0031061D01*
X0102636Y0031935D02*
X0100010Y0031935D01*
X0100010Y0032809D02*
X0102636Y0032809D01*
D11*
X0092276Y0029000D03*
X0086370Y0029000D03*
D12*
X0059323Y0056750D02*
X0056323Y0056750D01*
X0056323Y0061250D01*
X0059323Y0061250D01*
X0059323Y0056750D01*
X0059323Y0057749D02*
X0056323Y0057749D01*
X0056323Y0058748D02*
X0059323Y0058748D01*
X0059323Y0059747D02*
X0056323Y0059747D01*
X0056323Y0060746D02*
X0059323Y0060746D01*
X0052323Y0056750D02*
X0049323Y0056750D01*
X0049323Y0061250D01*
X0052323Y0061250D01*
X0052323Y0056750D01*
X0052323Y0057749D02*
X0049323Y0057749D01*
X0049323Y0058748D02*
X0052323Y0058748D01*
X0052323Y0059747D02*
X0049323Y0059747D01*
X0049323Y0060746D02*
X0052323Y0060746D01*
D13*
X0051123Y0051500D03*
X0051123Y0046500D03*
X0051123Y0041500D03*
X0051123Y0036500D03*
X0077623Y0036500D03*
X0077623Y0041500D03*
X0077623Y0046500D03*
X0077623Y0051500D03*
M02*
