%
M48
M72
T01C0.03150
T02C0.03200
T03C0.04000
T04C0.11024
%
T01
X68073Y16313
X68073Y24187
T02
X85787Y20036
X92859Y12964
X50359Y20036
X43287Y12964
X35359Y17536
X28287Y10464
T03
X24323Y44000
X14323Y44000
X14323Y54000
X24323Y54000
X24323Y64000
X14323Y64000
X59323Y72000
X69323Y71000
X79323Y72000
T04
X9323Y9000
X104323Y9000
X104323Y76500
X9323Y76500
M30
