G75*
%MOIN*%
%OFA0B0*%
%FSLAX25Y25*%
%IPPOS*%
%LPD*%
%AMOC8*
5,1,8,0,0,1.08239X$1,22.5*
%
%ADD10R,0.05550X0.05550*%
%ADD11C,0.05550*%
%ADD12C,0.01120*%
%ADD13C,0.06400*%
%ADD14OC8,0.06400*%
%ADD15C,0.07400*%
%ADD16C,0.01000*%
D10*
X0068073Y0016313D03*
D11*
X0068073Y0024187D03*
D12*
X0087466Y0020404D02*
X0088026Y0020964D01*
X0088026Y0019108D01*
X0086715Y0017797D01*
X0084859Y0017797D01*
X0083548Y0019108D01*
X0083548Y0020964D01*
X0084859Y0022275D01*
X0086715Y0022275D01*
X0088026Y0020964D01*
X0087186Y0020616D01*
X0087186Y0019456D01*
X0086367Y0018637D01*
X0085207Y0018637D01*
X0084388Y0019456D01*
X0084388Y0020616D01*
X0085207Y0021435D01*
X0086367Y0021435D01*
X0087186Y0020616D01*
X0086346Y0020268D01*
X0086346Y0019804D01*
X0086019Y0019477D01*
X0085555Y0019477D01*
X0085228Y0019804D01*
X0085228Y0020268D01*
X0085555Y0020595D01*
X0086019Y0020595D01*
X0086346Y0020268D01*
X0094538Y0013332D02*
X0095098Y0013892D01*
X0095098Y0012036D01*
X0093787Y0010725D01*
X0091931Y0010725D01*
X0090620Y0012036D01*
X0090620Y0013892D01*
X0091931Y0015203D01*
X0093787Y0015203D01*
X0095098Y0013892D01*
X0094258Y0013544D01*
X0094258Y0012384D01*
X0093439Y0011565D01*
X0092279Y0011565D01*
X0091460Y0012384D01*
X0091460Y0013544D01*
X0092279Y0014363D01*
X0093439Y0014363D01*
X0094258Y0013544D01*
X0093418Y0013196D01*
X0093418Y0012732D01*
X0093091Y0012405D01*
X0092627Y0012405D01*
X0092300Y0012732D01*
X0092300Y0013196D01*
X0092627Y0013523D01*
X0093091Y0013523D01*
X0093418Y0013196D01*
X0049991Y0021715D02*
X0049431Y0022275D01*
X0051287Y0022275D01*
X0052598Y0020964D01*
X0052598Y0019108D01*
X0051287Y0017797D01*
X0049431Y0017797D01*
X0048120Y0019108D01*
X0048120Y0020964D01*
X0049431Y0022275D01*
X0049779Y0021435D01*
X0050939Y0021435D01*
X0051758Y0020616D01*
X0051758Y0019456D01*
X0050939Y0018637D01*
X0049779Y0018637D01*
X0048960Y0019456D01*
X0048960Y0020616D01*
X0049779Y0021435D01*
X0050127Y0020595D01*
X0050591Y0020595D01*
X0050918Y0020268D01*
X0050918Y0019804D01*
X0050591Y0019477D01*
X0050127Y0019477D01*
X0049800Y0019804D01*
X0049800Y0020268D01*
X0050127Y0020595D01*
X0042919Y0014643D02*
X0042359Y0015203D01*
X0044215Y0015203D01*
X0045526Y0013892D01*
X0045526Y0012036D01*
X0044215Y0010725D01*
X0042359Y0010725D01*
X0041048Y0012036D01*
X0041048Y0013892D01*
X0042359Y0015203D01*
X0042707Y0014363D01*
X0043867Y0014363D01*
X0044686Y0013544D01*
X0044686Y0012384D01*
X0043867Y0011565D01*
X0042707Y0011565D01*
X0041888Y0012384D01*
X0041888Y0013544D01*
X0042707Y0014363D01*
X0043055Y0013523D01*
X0043519Y0013523D01*
X0043846Y0013196D01*
X0043846Y0012732D01*
X0043519Y0012405D01*
X0043055Y0012405D01*
X0042728Y0012732D01*
X0042728Y0013196D01*
X0043055Y0013523D01*
X0034991Y0019215D02*
X0034431Y0019775D01*
X0036287Y0019775D01*
X0037598Y0018464D01*
X0037598Y0016608D01*
X0036287Y0015297D01*
X0034431Y0015297D01*
X0033120Y0016608D01*
X0033120Y0018464D01*
X0034431Y0019775D01*
X0034779Y0018935D01*
X0035939Y0018935D01*
X0036758Y0018116D01*
X0036758Y0016956D01*
X0035939Y0016137D01*
X0034779Y0016137D01*
X0033960Y0016956D01*
X0033960Y0018116D01*
X0034779Y0018935D01*
X0035127Y0018095D01*
X0035591Y0018095D01*
X0035918Y0017768D01*
X0035918Y0017304D01*
X0035591Y0016977D01*
X0035127Y0016977D01*
X0034800Y0017304D01*
X0034800Y0017768D01*
X0035127Y0018095D01*
X0027919Y0012143D02*
X0027359Y0012703D01*
X0029215Y0012703D01*
X0030526Y0011392D01*
X0030526Y0009536D01*
X0029215Y0008225D01*
X0027359Y0008225D01*
X0026048Y0009536D01*
X0026048Y0011392D01*
X0027359Y0012703D01*
X0027707Y0011863D01*
X0028867Y0011863D01*
X0029686Y0011044D01*
X0029686Y0009884D01*
X0028867Y0009065D01*
X0027707Y0009065D01*
X0026888Y0009884D01*
X0026888Y0011044D01*
X0027707Y0011863D01*
X0028055Y0011023D01*
X0028519Y0011023D01*
X0028846Y0010696D01*
X0028846Y0010232D01*
X0028519Y0009905D01*
X0028055Y0009905D01*
X0027728Y0010232D01*
X0027728Y0010696D01*
X0028055Y0011023D01*
D13*
X0024323Y0044000D03*
D14*
X0014323Y0044000D03*
X0014323Y0054000D03*
X0024323Y0054000D03*
X0024323Y0064000D03*
X0014323Y0064000D03*
D15*
X0059323Y0072000D03*
X0069323Y0071000D03*
X0079323Y0072000D03*
D16*
X0013182Y0003225D02*
X0013121Y0003200D01*
X0100525Y0003200D01*
X0100464Y0003225D01*
X0098548Y0005141D01*
X0097511Y0007645D01*
X0097511Y0010355D01*
X0098548Y0012859D01*
X0100464Y0014775D01*
X0102968Y0015812D01*
X0105678Y0015812D01*
X0108182Y0014775D01*
X0110098Y0012859D01*
X0110123Y0012798D01*
X0110123Y0072702D01*
X0110098Y0072641D01*
X0108182Y0070725D01*
X0105678Y0069688D01*
X0102968Y0069688D01*
X0100464Y0070725D01*
X0098548Y0072641D01*
X0097511Y0075145D01*
X0097511Y0077855D01*
X0098548Y0080359D01*
X0100390Y0082200D01*
X0013256Y0082200D01*
X0015098Y0080359D01*
X0016135Y0077855D01*
X0016135Y0075145D01*
X0015098Y0072641D01*
X0013182Y0070725D01*
X0010678Y0069688D01*
X0007968Y0069688D01*
X0005464Y0070725D01*
X0003548Y0072641D01*
X0003523Y0072702D01*
X0003523Y0012798D01*
X0003548Y0012859D01*
X0005464Y0014775D01*
X0007968Y0015812D01*
X0010678Y0015812D01*
X0013182Y0014775D01*
X0015098Y0012859D01*
X0016135Y0010355D01*
X0016135Y0007645D01*
X0015098Y0005141D01*
X0013182Y0003225D01*
X0013956Y0004000D02*
X0099690Y0004000D01*
X0098691Y0004999D02*
X0014955Y0004999D01*
X0015452Y0005997D02*
X0098194Y0005997D01*
X0097780Y0006996D02*
X0030900Y0006996D01*
X0031116Y0007212D02*
X0028287Y0010040D01*
X0025459Y0007212D01*
X0026506Y0006164D01*
X0030069Y0006164D01*
X0031116Y0007212D01*
X0031540Y0007636D02*
X0032587Y0008683D01*
X0032587Y0012246D01*
X0031540Y0013293D01*
X0028712Y0010464D01*
X0031540Y0007636D01*
X0031182Y0007994D02*
X0030334Y0007994D01*
X0030184Y0008993D02*
X0029335Y0008993D01*
X0029185Y0009991D02*
X0028337Y0009991D01*
X0028287Y0010040D02*
X0028712Y0010464D01*
X0028287Y0010889D01*
X0027863Y0010464D01*
X0028287Y0010040D01*
X0028238Y0009991D02*
X0027390Y0009991D01*
X0027863Y0010464D02*
X0025035Y0007636D01*
X0023987Y0008683D01*
X0023987Y0012246D01*
X0025035Y0013293D01*
X0027863Y0010464D01*
X0028287Y0010889D02*
X0025459Y0013717D01*
X0026506Y0014764D01*
X0030069Y0014764D01*
X0031116Y0013717D01*
X0028287Y0010889D01*
X0028187Y0010990D02*
X0027338Y0010990D01*
X0027188Y0011988D02*
X0026339Y0011988D01*
X0023987Y0011988D02*
X0015458Y0011988D01*
X0015872Y0010990D02*
X0023987Y0010990D01*
X0023987Y0009991D02*
X0016135Y0009991D01*
X0016135Y0008993D02*
X0023987Y0008993D01*
X0024677Y0007994D02*
X0016135Y0007994D01*
X0015866Y0006996D02*
X0025675Y0006996D01*
X0025393Y0007994D02*
X0026241Y0007994D01*
X0026391Y0008993D02*
X0027240Y0008993D01*
X0028388Y0010990D02*
X0029237Y0010990D01*
X0029387Y0011988D02*
X0030235Y0011988D01*
X0032587Y0011988D02*
X0038987Y0011988D01*
X0038987Y0011183D02*
X0040035Y0010136D01*
X0042863Y0012964D01*
X0043287Y0012540D01*
X0040459Y0009712D01*
X0041506Y0008664D01*
X0045069Y0008664D01*
X0046116Y0009712D01*
X0043287Y0012540D01*
X0043712Y0012964D01*
X0046540Y0010136D01*
X0047587Y0011183D01*
X0047587Y0014746D01*
X0046540Y0015793D01*
X0043712Y0012964D01*
X0043287Y0013389D01*
X0042863Y0012964D01*
X0040035Y0015793D01*
X0038987Y0014746D01*
X0038987Y0011183D01*
X0039181Y0010990D02*
X0032587Y0010990D01*
X0032587Y0009991D02*
X0040738Y0009991D01*
X0040888Y0010990D02*
X0041737Y0010990D01*
X0041887Y0011988D02*
X0042735Y0011988D01*
X0043839Y0011988D02*
X0044688Y0011988D01*
X0044838Y0010990D02*
X0045687Y0010990D01*
X0045837Y0009991D02*
X0090034Y0009991D01*
X0091032Y0008993D02*
X0045397Y0008993D01*
X0047394Y0010990D02*
X0089035Y0010990D01*
X0088759Y0011266D02*
X0091160Y0008864D01*
X0094557Y0008864D01*
X0096958Y0011266D01*
X0096958Y0014663D01*
X0094557Y0017064D01*
X0091160Y0017064D01*
X0088759Y0014663D01*
X0088759Y0011266D01*
X0088759Y0011988D02*
X0047587Y0011988D01*
X0047587Y0012987D02*
X0064011Y0012987D01*
X0063998Y0013000D02*
X0064760Y0012238D01*
X0071386Y0012238D01*
X0072148Y0013000D01*
X0072148Y0019626D01*
X0071386Y0020388D01*
X0070033Y0020388D01*
X0070313Y0020531D01*
X0070858Y0020926D01*
X0071334Y0021402D01*
X0071729Y0021947D01*
X0072035Y0022546D01*
X0072243Y0023186D01*
X0072348Y0023851D01*
X0072348Y0023900D01*
X0068360Y0023900D01*
X0068360Y0024474D01*
X0072348Y0024474D01*
X0072348Y0024523D01*
X0072243Y0025188D01*
X0072035Y0025828D01*
X0071729Y0026427D01*
X0071334Y0026972D01*
X0070858Y0027448D01*
X0070313Y0027843D01*
X0069714Y0028149D01*
X0069074Y0028357D01*
X0068409Y0028462D01*
X0068360Y0028462D01*
X0068360Y0024474D01*
X0067786Y0024474D01*
X0067785Y0024474D02*
X0067785Y0023900D01*
X0063798Y0023900D01*
X0063798Y0023851D01*
X0063903Y0023186D01*
X0064111Y0022546D01*
X0064417Y0021947D01*
X0064812Y0021402D01*
X0065288Y0020926D01*
X0065832Y0020531D01*
X0066113Y0020388D01*
X0064760Y0020388D01*
X0063998Y0019626D01*
X0063998Y0013000D01*
X0063998Y0013985D02*
X0047587Y0013985D01*
X0047349Y0014984D02*
X0063998Y0014984D01*
X0063998Y0015982D02*
X0052103Y0015982D01*
X0052057Y0015936D02*
X0054458Y0018337D01*
X0054458Y0021734D01*
X0052057Y0024136D01*
X0048660Y0024136D01*
X0046259Y0021734D01*
X0046259Y0018337D01*
X0048660Y0015936D01*
X0052057Y0015936D01*
X0053102Y0016981D02*
X0063998Y0016981D01*
X0063998Y0017979D02*
X0054100Y0017979D01*
X0054458Y0018978D02*
X0063998Y0018978D01*
X0064348Y0019976D02*
X0054458Y0019976D01*
X0054458Y0020975D02*
X0065240Y0020975D01*
X0064403Y0021973D02*
X0054219Y0021973D01*
X0053221Y0022972D02*
X0063973Y0022972D01*
X0063798Y0024474D02*
X0067785Y0024474D01*
X0067786Y0024474D02*
X0067786Y0028462D01*
X0067737Y0028462D01*
X0067072Y0028357D01*
X0066432Y0028149D01*
X0065832Y0027843D01*
X0065288Y0027448D01*
X0064812Y0026972D01*
X0064417Y0026427D01*
X0064111Y0025828D01*
X0063903Y0025188D01*
X0063798Y0024523D01*
X0063798Y0024474D01*
X0063869Y0024969D02*
X0003523Y0024969D01*
X0003523Y0023970D02*
X0048495Y0023970D01*
X0047496Y0022972D02*
X0003523Y0022972D01*
X0003523Y0021973D02*
X0046498Y0021973D01*
X0046259Y0020975D02*
X0037718Y0020975D01*
X0037057Y0021636D02*
X0033660Y0021636D01*
X0031259Y0019234D01*
X0031259Y0015837D01*
X0033660Y0013436D01*
X0037057Y0013436D01*
X0039458Y0015837D01*
X0039458Y0019234D01*
X0037057Y0021636D01*
X0038716Y0019976D02*
X0046259Y0019976D01*
X0046259Y0018978D02*
X0039458Y0018978D01*
X0039458Y0017979D02*
X0046617Y0017979D01*
X0047615Y0016981D02*
X0045352Y0016981D01*
X0045069Y0017264D02*
X0046116Y0016217D01*
X0043287Y0013389D01*
X0040459Y0016217D01*
X0041506Y0017264D01*
X0045069Y0017264D01*
X0045881Y0015982D02*
X0048614Y0015982D01*
X0045731Y0014984D02*
X0044882Y0014984D01*
X0044732Y0013985D02*
X0043884Y0013985D01*
X0043734Y0012987D02*
X0043690Y0012987D01*
X0042885Y0012987D02*
X0042841Y0012987D01*
X0042691Y0013985D02*
X0041842Y0013985D01*
X0041693Y0014984D02*
X0040844Y0014984D01*
X0040694Y0015982D02*
X0039458Y0015982D01*
X0039458Y0016981D02*
X0041223Y0016981D01*
X0039226Y0014984D02*
X0038605Y0014984D01*
X0038987Y0013985D02*
X0037606Y0013985D01*
X0038987Y0012987D02*
X0031846Y0012987D01*
X0031234Y0012987D02*
X0030385Y0012987D01*
X0030848Y0013985D02*
X0033111Y0013985D01*
X0032112Y0014984D02*
X0012677Y0014984D01*
X0013971Y0013985D02*
X0025727Y0013985D01*
X0025341Y0012987D02*
X0026190Y0012987D01*
X0024728Y0012987D02*
X0014970Y0012987D01*
X0005969Y0014984D02*
X0003523Y0014984D01*
X0003523Y0015982D02*
X0031259Y0015982D01*
X0031259Y0016981D02*
X0003523Y0016981D01*
X0003523Y0017979D02*
X0031259Y0017979D01*
X0031259Y0018978D02*
X0003523Y0018978D01*
X0003523Y0019976D02*
X0032001Y0019976D01*
X0032999Y0020975D02*
X0003523Y0020975D01*
X0003523Y0025967D02*
X0064182Y0025967D01*
X0064808Y0026966D02*
X0003523Y0026966D01*
X0003523Y0027964D02*
X0066070Y0027964D01*
X0067786Y0027964D02*
X0068360Y0027964D01*
X0068360Y0026966D02*
X0067786Y0026966D01*
X0067786Y0025967D02*
X0068360Y0025967D01*
X0068360Y0024969D02*
X0067786Y0024969D01*
X0067785Y0023970D02*
X0052222Y0023970D01*
X0068360Y0023970D02*
X0083924Y0023970D01*
X0084089Y0024136D02*
X0081687Y0021734D01*
X0081687Y0018337D01*
X0084089Y0015936D01*
X0087486Y0015936D01*
X0089887Y0018337D01*
X0089887Y0021734D01*
X0087486Y0024136D01*
X0084089Y0024136D01*
X0082925Y0022972D02*
X0072173Y0022972D01*
X0071743Y0021973D02*
X0081927Y0021973D01*
X0081687Y0020975D02*
X0070906Y0020975D01*
X0071798Y0019976D02*
X0081687Y0019976D01*
X0081687Y0018978D02*
X0072148Y0018978D01*
X0072148Y0017979D02*
X0082046Y0017979D01*
X0083044Y0016981D02*
X0072148Y0016981D01*
X0072148Y0015982D02*
X0084043Y0015982D01*
X0087532Y0015982D02*
X0090078Y0015982D01*
X0089079Y0014984D02*
X0072148Y0014984D01*
X0072148Y0013985D02*
X0088759Y0013985D01*
X0088759Y0012987D02*
X0072135Y0012987D01*
X0087651Y0023970D02*
X0110123Y0023970D01*
X0110123Y0022972D02*
X0088649Y0022972D01*
X0089648Y0021973D02*
X0110123Y0021973D01*
X0110123Y0020975D02*
X0089887Y0020975D01*
X0089887Y0019976D02*
X0110123Y0019976D01*
X0110123Y0018978D02*
X0089887Y0018978D01*
X0089529Y0017979D02*
X0110123Y0017979D01*
X0110123Y0016981D02*
X0094641Y0016981D01*
X0095639Y0015982D02*
X0110123Y0015982D01*
X0110123Y0014984D02*
X0107677Y0014984D01*
X0108971Y0013985D02*
X0110123Y0013985D01*
X0110123Y0012987D02*
X0109970Y0012987D01*
X0100969Y0014984D02*
X0096638Y0014984D01*
X0096958Y0013985D02*
X0099675Y0013985D01*
X0098676Y0012987D02*
X0096958Y0012987D01*
X0096958Y0011988D02*
X0098188Y0011988D01*
X0097774Y0010990D02*
X0096682Y0010990D01*
X0097511Y0009991D02*
X0095683Y0009991D01*
X0094685Y0008993D02*
X0097511Y0008993D01*
X0097511Y0007994D02*
X0031898Y0007994D01*
X0032587Y0008993D02*
X0041178Y0008993D01*
X0070076Y0027964D02*
X0110123Y0027964D01*
X0110123Y0026966D02*
X0071338Y0026966D01*
X0071964Y0025967D02*
X0110123Y0025967D01*
X0110123Y0024969D02*
X0072277Y0024969D01*
X0088531Y0016981D02*
X0091076Y0016981D01*
X0110123Y0028963D02*
X0003523Y0028963D01*
X0003523Y0029961D02*
X0110123Y0029961D01*
X0110123Y0030960D02*
X0003523Y0030960D01*
X0003523Y0031958D02*
X0110123Y0031958D01*
X0110123Y0032957D02*
X0003523Y0032957D01*
X0003523Y0033955D02*
X0110123Y0033955D01*
X0110123Y0034954D02*
X0003523Y0034954D01*
X0003523Y0035952D02*
X0110123Y0035952D01*
X0110123Y0036951D02*
X0003523Y0036951D01*
X0003523Y0037949D02*
X0110123Y0037949D01*
X0110123Y0038948D02*
X0003523Y0038948D01*
X0003523Y0039946D02*
X0012013Y0039946D01*
X0012459Y0039500D02*
X0016187Y0039500D01*
X0018823Y0042136D01*
X0018823Y0045864D01*
X0016187Y0048500D01*
X0012459Y0048500D01*
X0009823Y0045864D01*
X0009823Y0042136D01*
X0012459Y0039500D01*
X0011014Y0040945D02*
X0003523Y0040945D01*
X0003523Y0041943D02*
X0010016Y0041943D01*
X0009823Y0042942D02*
X0003523Y0042942D01*
X0003523Y0043940D02*
X0009823Y0043940D01*
X0009823Y0044939D02*
X0003523Y0044939D01*
X0003523Y0045937D02*
X0009896Y0045937D01*
X0010895Y0046936D02*
X0003523Y0046936D01*
X0003523Y0047934D02*
X0011894Y0047934D01*
X0012459Y0049500D02*
X0016187Y0049500D01*
X0018823Y0052136D01*
X0018823Y0055864D01*
X0016187Y0058500D01*
X0012459Y0058500D01*
X0009823Y0055864D01*
X0009823Y0052136D01*
X0012459Y0049500D01*
X0012027Y0049932D02*
X0003523Y0049932D01*
X0003523Y0050930D02*
X0011029Y0050930D01*
X0010030Y0051929D02*
X0003523Y0051929D01*
X0003523Y0052927D02*
X0009823Y0052927D01*
X0009823Y0053926D02*
X0003523Y0053926D01*
X0003523Y0054924D02*
X0009823Y0054924D01*
X0009882Y0055923D02*
X0003523Y0055923D01*
X0003523Y0056921D02*
X0010880Y0056921D01*
X0011879Y0057920D02*
X0003523Y0057920D01*
X0003523Y0058918D02*
X0110123Y0058918D01*
X0110123Y0057920D02*
X0026767Y0057920D01*
X0026187Y0058500D02*
X0022459Y0058500D01*
X0019823Y0055864D01*
X0019823Y0052136D01*
X0022459Y0049500D01*
X0026187Y0049500D01*
X0028823Y0052136D01*
X0028823Y0055864D01*
X0026187Y0058500D01*
X0026187Y0059500D02*
X0028823Y0062136D01*
X0028823Y0065864D01*
X0026187Y0068500D01*
X0022459Y0068500D01*
X0019823Y0065864D01*
X0019823Y0062136D01*
X0022459Y0059500D01*
X0026187Y0059500D01*
X0026604Y0059917D02*
X0110123Y0059917D01*
X0110123Y0060915D02*
X0027602Y0060915D01*
X0028601Y0061914D02*
X0110123Y0061914D01*
X0110123Y0062912D02*
X0028823Y0062912D01*
X0028823Y0063911D02*
X0110123Y0063911D01*
X0110123Y0064909D02*
X0028823Y0064909D01*
X0028779Y0065908D02*
X0068234Y0065908D01*
X0068105Y0065928D02*
X0067327Y0066181D01*
X0066598Y0066553D01*
X0065935Y0067034D01*
X0065357Y0067612D01*
X0064876Y0068275D01*
X0064504Y0069004D01*
X0064251Y0069782D01*
X0064137Y0070500D01*
X0068823Y0070500D01*
X0069823Y0070500D01*
X0069823Y0071500D01*
X0074323Y0071500D01*
X0074323Y0071005D01*
X0075084Y0069168D01*
X0076491Y0067761D01*
X0078328Y0067000D01*
X0080318Y0067000D01*
X0082155Y0067761D01*
X0083562Y0069168D01*
X0084323Y0071005D01*
X0084323Y0072995D01*
X0083562Y0074832D01*
X0082155Y0076239D01*
X0080318Y0077000D01*
X0078328Y0077000D01*
X0076491Y0076239D01*
X0075084Y0074832D01*
X0074323Y0072995D01*
X0074323Y0072439D01*
X0074142Y0072996D01*
X0073770Y0073725D01*
X0073289Y0074388D01*
X0072711Y0074966D01*
X0072048Y0075447D01*
X0071319Y0075819D01*
X0070541Y0076072D01*
X0069823Y0076186D01*
X0069823Y0071500D01*
X0068823Y0071500D01*
X0068823Y0076186D01*
X0068105Y0076072D01*
X0067327Y0075819D01*
X0066598Y0075447D01*
X0065935Y0074966D01*
X0065357Y0074388D01*
X0064876Y0073725D01*
X0064504Y0072996D01*
X0064323Y0072439D01*
X0064323Y0072995D01*
X0063562Y0074832D01*
X0062155Y0076239D01*
X0060318Y0077000D01*
X0058328Y0077000D01*
X0056491Y0076239D01*
X0055084Y0074832D01*
X0054323Y0072995D01*
X0054323Y0071005D01*
X0055084Y0069168D01*
X0056491Y0067761D01*
X0058328Y0067000D01*
X0060318Y0067000D01*
X0062155Y0067761D01*
X0063562Y0069168D01*
X0064323Y0071005D01*
X0064323Y0071500D01*
X0068823Y0071500D01*
X0068823Y0070500D01*
X0068823Y0065814D01*
X0068105Y0065928D01*
X0068823Y0065908D02*
X0069823Y0065908D01*
X0069823Y0065814D02*
X0070541Y0065928D01*
X0071319Y0066181D01*
X0072048Y0066553D01*
X0072711Y0067034D01*
X0073289Y0067612D01*
X0073770Y0068275D01*
X0074142Y0069004D01*
X0074395Y0069782D01*
X0074509Y0070500D01*
X0069823Y0070500D01*
X0069823Y0065814D01*
X0070412Y0065908D02*
X0110123Y0065908D01*
X0110123Y0066906D02*
X0072535Y0066906D01*
X0073502Y0067905D02*
X0076347Y0067905D01*
X0075349Y0068903D02*
X0074091Y0068903D01*
X0074414Y0069902D02*
X0074780Y0069902D01*
X0074367Y0070900D02*
X0069823Y0070900D01*
X0069823Y0071899D02*
X0068823Y0071899D01*
X0068823Y0072897D02*
X0069823Y0072897D01*
X0069823Y0073896D02*
X0068823Y0073896D01*
X0068823Y0074894D02*
X0069823Y0074894D01*
X0069823Y0075893D02*
X0068823Y0075893D01*
X0067554Y0075893D02*
X0062501Y0075893D01*
X0063500Y0074894D02*
X0065863Y0074894D01*
X0064999Y0073896D02*
X0063950Y0073896D01*
X0064323Y0072897D02*
X0064472Y0072897D01*
X0064279Y0070900D02*
X0068823Y0070900D01*
X0068823Y0069902D02*
X0069823Y0069902D01*
X0069823Y0068903D02*
X0068823Y0068903D01*
X0068823Y0067905D02*
X0069823Y0067905D01*
X0069823Y0066906D02*
X0068823Y0066906D01*
X0066111Y0066906D02*
X0027781Y0066906D01*
X0026782Y0067905D02*
X0056347Y0067905D01*
X0055349Y0068903D02*
X0003523Y0068903D01*
X0003523Y0067905D02*
X0011581Y0067905D01*
X0012376Y0068700D02*
X0009623Y0065947D01*
X0009623Y0064500D01*
X0013823Y0064500D01*
X0013823Y0068700D01*
X0012376Y0068700D01*
X0011193Y0069902D02*
X0054780Y0069902D01*
X0054367Y0070900D02*
X0013357Y0070900D01*
X0014355Y0071899D02*
X0054323Y0071899D01*
X0054323Y0072897D02*
X0015204Y0072897D01*
X0015617Y0073896D02*
X0054696Y0073896D01*
X0055146Y0074894D02*
X0016031Y0074894D01*
X0016135Y0075893D02*
X0056145Y0075893D01*
X0058066Y0076891D02*
X0016135Y0076891D01*
X0016120Y0077890D02*
X0097526Y0077890D01*
X0097511Y0076891D02*
X0080580Y0076891D01*
X0082501Y0075893D02*
X0097511Y0075893D01*
X0097615Y0074894D02*
X0083500Y0074894D01*
X0083950Y0073896D02*
X0098029Y0073896D01*
X0098442Y0072897D02*
X0084323Y0072897D01*
X0084323Y0071899D02*
X0099291Y0071899D01*
X0100289Y0070900D02*
X0084279Y0070900D01*
X0083866Y0069902D02*
X0102452Y0069902D01*
X0106193Y0069902D02*
X0110123Y0069902D01*
X0110123Y0068903D02*
X0083297Y0068903D01*
X0082299Y0067905D02*
X0110123Y0067905D01*
X0110123Y0070900D02*
X0108357Y0070900D01*
X0109355Y0071899D02*
X0110123Y0071899D01*
X0097939Y0078888D02*
X0015707Y0078888D01*
X0015293Y0079887D02*
X0098353Y0079887D01*
X0099075Y0080885D02*
X0014571Y0080885D01*
X0013572Y0081884D02*
X0100074Y0081884D01*
X0078066Y0076891D02*
X0060580Y0076891D01*
X0071092Y0075893D02*
X0076145Y0075893D01*
X0075146Y0074894D02*
X0072783Y0074894D01*
X0073647Y0073896D02*
X0074696Y0073896D01*
X0074323Y0072897D02*
X0074174Y0072897D01*
X0065144Y0067905D02*
X0062299Y0067905D01*
X0063297Y0068903D02*
X0064555Y0068903D01*
X0064232Y0069902D02*
X0063866Y0069902D01*
X0028764Y0055923D02*
X0110123Y0055923D01*
X0110123Y0056921D02*
X0027766Y0056921D01*
X0028823Y0054924D02*
X0110123Y0054924D01*
X0110123Y0053926D02*
X0028823Y0053926D01*
X0028823Y0052927D02*
X0110123Y0052927D01*
X0110123Y0051929D02*
X0028615Y0051929D01*
X0027617Y0050930D02*
X0110123Y0050930D01*
X0110123Y0049932D02*
X0026618Y0049932D01*
X0025218Y0048500D02*
X0023428Y0048500D01*
X0021774Y0047815D01*
X0020508Y0046549D01*
X0019823Y0044895D01*
X0019823Y0043105D01*
X0020508Y0041451D01*
X0021774Y0040185D01*
X0023428Y0039500D01*
X0025218Y0039500D01*
X0026872Y0040185D01*
X0028138Y0041451D01*
X0028823Y0043105D01*
X0028823Y0044895D01*
X0028138Y0046549D01*
X0026872Y0047815D01*
X0025218Y0048500D01*
X0026583Y0047934D02*
X0110123Y0047934D01*
X0110123Y0046936D02*
X0027751Y0046936D01*
X0028391Y0045937D02*
X0110123Y0045937D01*
X0110123Y0044939D02*
X0028805Y0044939D01*
X0028823Y0043940D02*
X0110123Y0043940D01*
X0110123Y0042942D02*
X0028755Y0042942D01*
X0028342Y0041943D02*
X0110123Y0041943D01*
X0110123Y0040945D02*
X0027632Y0040945D01*
X0026296Y0039946D02*
X0110123Y0039946D01*
X0110123Y0048933D02*
X0003523Y0048933D01*
X0016618Y0049932D02*
X0022027Y0049932D01*
X0021029Y0050930D02*
X0017617Y0050930D01*
X0018615Y0051929D02*
X0020030Y0051929D01*
X0019823Y0052927D02*
X0018823Y0052927D01*
X0018823Y0053926D02*
X0019823Y0053926D01*
X0019823Y0054924D02*
X0018823Y0054924D01*
X0018764Y0055923D02*
X0019882Y0055923D01*
X0020880Y0056921D02*
X0017766Y0056921D01*
X0016767Y0057920D02*
X0021879Y0057920D01*
X0022042Y0059917D02*
X0016886Y0059917D01*
X0016270Y0059300D02*
X0019023Y0062053D01*
X0019023Y0063500D01*
X0014823Y0063500D01*
X0014823Y0064500D01*
X0019023Y0064500D01*
X0019023Y0065947D01*
X0016270Y0068700D01*
X0014823Y0068700D01*
X0014823Y0064500D01*
X0013823Y0064500D01*
X0013823Y0063500D01*
X0014823Y0063500D01*
X0014823Y0059300D01*
X0016270Y0059300D01*
X0014823Y0059917D02*
X0013823Y0059917D01*
X0013823Y0059300D02*
X0013823Y0063500D01*
X0009623Y0063500D01*
X0009623Y0062053D01*
X0012376Y0059300D01*
X0013823Y0059300D01*
X0013823Y0060915D02*
X0014823Y0060915D01*
X0014823Y0061914D02*
X0013823Y0061914D01*
X0013823Y0062912D02*
X0014823Y0062912D01*
X0014823Y0063911D02*
X0019823Y0063911D01*
X0019823Y0064909D02*
X0019023Y0064909D01*
X0019023Y0065908D02*
X0019867Y0065908D01*
X0020865Y0066906D02*
X0018064Y0066906D01*
X0017065Y0067905D02*
X0021864Y0067905D01*
X0019823Y0062912D02*
X0019023Y0062912D01*
X0018883Y0061914D02*
X0020045Y0061914D01*
X0021044Y0060915D02*
X0017885Y0060915D01*
X0013823Y0063911D02*
X0003523Y0063911D01*
X0003523Y0064909D02*
X0009623Y0064909D01*
X0009623Y0065908D02*
X0003523Y0065908D01*
X0003523Y0066906D02*
X0010582Y0066906D01*
X0013823Y0066906D02*
X0014823Y0066906D01*
X0014823Y0065908D02*
X0013823Y0065908D01*
X0013823Y0064909D02*
X0014823Y0064909D01*
X0014823Y0067905D02*
X0013823Y0067905D01*
X0009623Y0062912D02*
X0003523Y0062912D01*
X0003523Y0061914D02*
X0009763Y0061914D01*
X0010761Y0060915D02*
X0003523Y0060915D01*
X0003523Y0059917D02*
X0011760Y0059917D01*
X0007452Y0069902D02*
X0003523Y0069902D01*
X0003523Y0070900D02*
X0005289Y0070900D01*
X0004291Y0071899D02*
X0003523Y0071899D01*
X0016752Y0047934D02*
X0022063Y0047934D01*
X0020895Y0046936D02*
X0017751Y0046936D01*
X0018749Y0045937D02*
X0020255Y0045937D01*
X0019841Y0044939D02*
X0018823Y0044939D01*
X0018823Y0043940D02*
X0019823Y0043940D01*
X0019890Y0042942D02*
X0018823Y0042942D01*
X0018630Y0041943D02*
X0020304Y0041943D01*
X0021014Y0040945D02*
X0017632Y0040945D01*
X0016633Y0039946D02*
X0022350Y0039946D01*
X0004675Y0013985D02*
X0003523Y0013985D01*
X0003523Y0012987D02*
X0003676Y0012987D01*
M02*
