G75*
%MOIN*%
%OFA0B0*%
%FSLAX25Y25*%
%IPPOS*%
%LPD*%
%AMOC8*
5,1,8,0,0,1.08239X$1,22.5*
%
%ADD10C,0.00800*%
%ADD11C,0.00000*%
%ADD12C,0.01000*%
%ADD13C,0.05000*%
%ADD14C,0.00875*%
%ADD15R,0.05550X0.05550*%
%ADD16C,0.05550*%
%ADD17C,0.01120*%
%ADD18R,0.03150X0.03150*%
%ADD19C,0.06400*%
%ADD20OC8,0.06400*%
%ADD21R,0.08700X0.02400*%
%ADD22C,0.07400*%
D10*
X0001823Y0001500D02*
X0001823Y0084000D01*
X0111823Y0084000D02*
X0111823Y0001500D01*
X0001823Y0001500D01*
D11*
X0003811Y0009000D02*
X0003813Y0009148D01*
X0003819Y0009296D01*
X0003829Y0009444D01*
X0003843Y0009591D01*
X0003861Y0009738D01*
X0003882Y0009884D01*
X0003908Y0010030D01*
X0003938Y0010175D01*
X0003971Y0010319D01*
X0004009Y0010462D01*
X0004050Y0010604D01*
X0004095Y0010745D01*
X0004143Y0010885D01*
X0004196Y0011024D01*
X0004252Y0011161D01*
X0004312Y0011296D01*
X0004375Y0011430D01*
X0004442Y0011562D01*
X0004513Y0011692D01*
X0004587Y0011820D01*
X0004664Y0011946D01*
X0004745Y0012070D01*
X0004829Y0012192D01*
X0004916Y0012311D01*
X0005007Y0012428D01*
X0005101Y0012543D01*
X0005197Y0012655D01*
X0005297Y0012765D01*
X0005399Y0012871D01*
X0005505Y0012975D01*
X0005613Y0013076D01*
X0005724Y0013174D01*
X0005837Y0013270D01*
X0005953Y0013362D01*
X0006071Y0013451D01*
X0006192Y0013536D01*
X0006315Y0013619D01*
X0006440Y0013698D01*
X0006567Y0013774D01*
X0006696Y0013846D01*
X0006827Y0013915D01*
X0006960Y0013980D01*
X0007095Y0014041D01*
X0007231Y0014099D01*
X0007368Y0014154D01*
X0007507Y0014204D01*
X0007648Y0014251D01*
X0007789Y0014294D01*
X0007932Y0014334D01*
X0008076Y0014369D01*
X0008220Y0014401D01*
X0008366Y0014428D01*
X0008512Y0014452D01*
X0008659Y0014472D01*
X0008806Y0014488D01*
X0008953Y0014500D01*
X0009101Y0014508D01*
X0009249Y0014512D01*
X0009397Y0014512D01*
X0009545Y0014508D01*
X0009693Y0014500D01*
X0009840Y0014488D01*
X0009987Y0014472D01*
X0010134Y0014452D01*
X0010280Y0014428D01*
X0010426Y0014401D01*
X0010570Y0014369D01*
X0010714Y0014334D01*
X0010857Y0014294D01*
X0010998Y0014251D01*
X0011139Y0014204D01*
X0011278Y0014154D01*
X0011415Y0014099D01*
X0011551Y0014041D01*
X0011686Y0013980D01*
X0011819Y0013915D01*
X0011950Y0013846D01*
X0012079Y0013774D01*
X0012206Y0013698D01*
X0012331Y0013619D01*
X0012454Y0013536D01*
X0012575Y0013451D01*
X0012693Y0013362D01*
X0012809Y0013270D01*
X0012922Y0013174D01*
X0013033Y0013076D01*
X0013141Y0012975D01*
X0013247Y0012871D01*
X0013349Y0012765D01*
X0013449Y0012655D01*
X0013545Y0012543D01*
X0013639Y0012428D01*
X0013730Y0012311D01*
X0013817Y0012192D01*
X0013901Y0012070D01*
X0013982Y0011946D01*
X0014059Y0011820D01*
X0014133Y0011692D01*
X0014204Y0011562D01*
X0014271Y0011430D01*
X0014334Y0011296D01*
X0014394Y0011161D01*
X0014450Y0011024D01*
X0014503Y0010885D01*
X0014551Y0010745D01*
X0014596Y0010604D01*
X0014637Y0010462D01*
X0014675Y0010319D01*
X0014708Y0010175D01*
X0014738Y0010030D01*
X0014764Y0009884D01*
X0014785Y0009738D01*
X0014803Y0009591D01*
X0014817Y0009444D01*
X0014827Y0009296D01*
X0014833Y0009148D01*
X0014835Y0009000D01*
X0014833Y0008852D01*
X0014827Y0008704D01*
X0014817Y0008556D01*
X0014803Y0008409D01*
X0014785Y0008262D01*
X0014764Y0008116D01*
X0014738Y0007970D01*
X0014708Y0007825D01*
X0014675Y0007681D01*
X0014637Y0007538D01*
X0014596Y0007396D01*
X0014551Y0007255D01*
X0014503Y0007115D01*
X0014450Y0006976D01*
X0014394Y0006839D01*
X0014334Y0006704D01*
X0014271Y0006570D01*
X0014204Y0006438D01*
X0014133Y0006308D01*
X0014059Y0006180D01*
X0013982Y0006054D01*
X0013901Y0005930D01*
X0013817Y0005808D01*
X0013730Y0005689D01*
X0013639Y0005572D01*
X0013545Y0005457D01*
X0013449Y0005345D01*
X0013349Y0005235D01*
X0013247Y0005129D01*
X0013141Y0005025D01*
X0013033Y0004924D01*
X0012922Y0004826D01*
X0012809Y0004730D01*
X0012693Y0004638D01*
X0012575Y0004549D01*
X0012454Y0004464D01*
X0012331Y0004381D01*
X0012206Y0004302D01*
X0012079Y0004226D01*
X0011950Y0004154D01*
X0011819Y0004085D01*
X0011686Y0004020D01*
X0011551Y0003959D01*
X0011415Y0003901D01*
X0011278Y0003846D01*
X0011139Y0003796D01*
X0010998Y0003749D01*
X0010857Y0003706D01*
X0010714Y0003666D01*
X0010570Y0003631D01*
X0010426Y0003599D01*
X0010280Y0003572D01*
X0010134Y0003548D01*
X0009987Y0003528D01*
X0009840Y0003512D01*
X0009693Y0003500D01*
X0009545Y0003492D01*
X0009397Y0003488D01*
X0009249Y0003488D01*
X0009101Y0003492D01*
X0008953Y0003500D01*
X0008806Y0003512D01*
X0008659Y0003528D01*
X0008512Y0003548D01*
X0008366Y0003572D01*
X0008220Y0003599D01*
X0008076Y0003631D01*
X0007932Y0003666D01*
X0007789Y0003706D01*
X0007648Y0003749D01*
X0007507Y0003796D01*
X0007368Y0003846D01*
X0007231Y0003901D01*
X0007095Y0003959D01*
X0006960Y0004020D01*
X0006827Y0004085D01*
X0006696Y0004154D01*
X0006567Y0004226D01*
X0006440Y0004302D01*
X0006315Y0004381D01*
X0006192Y0004464D01*
X0006071Y0004549D01*
X0005953Y0004638D01*
X0005837Y0004730D01*
X0005724Y0004826D01*
X0005613Y0004924D01*
X0005505Y0005025D01*
X0005399Y0005129D01*
X0005297Y0005235D01*
X0005197Y0005345D01*
X0005101Y0005457D01*
X0005007Y0005572D01*
X0004916Y0005689D01*
X0004829Y0005808D01*
X0004745Y0005930D01*
X0004664Y0006054D01*
X0004587Y0006180D01*
X0004513Y0006308D01*
X0004442Y0006438D01*
X0004375Y0006570D01*
X0004312Y0006704D01*
X0004252Y0006839D01*
X0004196Y0006976D01*
X0004143Y0007115D01*
X0004095Y0007255D01*
X0004050Y0007396D01*
X0004009Y0007538D01*
X0003971Y0007681D01*
X0003938Y0007825D01*
X0003908Y0007970D01*
X0003882Y0008116D01*
X0003861Y0008262D01*
X0003843Y0008409D01*
X0003829Y0008556D01*
X0003819Y0008704D01*
X0003813Y0008852D01*
X0003811Y0009000D01*
X0003811Y0076500D02*
X0003813Y0076648D01*
X0003819Y0076796D01*
X0003829Y0076944D01*
X0003843Y0077091D01*
X0003861Y0077238D01*
X0003882Y0077384D01*
X0003908Y0077530D01*
X0003938Y0077675D01*
X0003971Y0077819D01*
X0004009Y0077962D01*
X0004050Y0078104D01*
X0004095Y0078245D01*
X0004143Y0078385D01*
X0004196Y0078524D01*
X0004252Y0078661D01*
X0004312Y0078796D01*
X0004375Y0078930D01*
X0004442Y0079062D01*
X0004513Y0079192D01*
X0004587Y0079320D01*
X0004664Y0079446D01*
X0004745Y0079570D01*
X0004829Y0079692D01*
X0004916Y0079811D01*
X0005007Y0079928D01*
X0005101Y0080043D01*
X0005197Y0080155D01*
X0005297Y0080265D01*
X0005399Y0080371D01*
X0005505Y0080475D01*
X0005613Y0080576D01*
X0005724Y0080674D01*
X0005837Y0080770D01*
X0005953Y0080862D01*
X0006071Y0080951D01*
X0006192Y0081036D01*
X0006315Y0081119D01*
X0006440Y0081198D01*
X0006567Y0081274D01*
X0006696Y0081346D01*
X0006827Y0081415D01*
X0006960Y0081480D01*
X0007095Y0081541D01*
X0007231Y0081599D01*
X0007368Y0081654D01*
X0007507Y0081704D01*
X0007648Y0081751D01*
X0007789Y0081794D01*
X0007932Y0081834D01*
X0008076Y0081869D01*
X0008220Y0081901D01*
X0008366Y0081928D01*
X0008512Y0081952D01*
X0008659Y0081972D01*
X0008806Y0081988D01*
X0008953Y0082000D01*
X0009101Y0082008D01*
X0009249Y0082012D01*
X0009397Y0082012D01*
X0009545Y0082008D01*
X0009693Y0082000D01*
X0009840Y0081988D01*
X0009987Y0081972D01*
X0010134Y0081952D01*
X0010280Y0081928D01*
X0010426Y0081901D01*
X0010570Y0081869D01*
X0010714Y0081834D01*
X0010857Y0081794D01*
X0010998Y0081751D01*
X0011139Y0081704D01*
X0011278Y0081654D01*
X0011415Y0081599D01*
X0011551Y0081541D01*
X0011686Y0081480D01*
X0011819Y0081415D01*
X0011950Y0081346D01*
X0012079Y0081274D01*
X0012206Y0081198D01*
X0012331Y0081119D01*
X0012454Y0081036D01*
X0012575Y0080951D01*
X0012693Y0080862D01*
X0012809Y0080770D01*
X0012922Y0080674D01*
X0013033Y0080576D01*
X0013141Y0080475D01*
X0013247Y0080371D01*
X0013349Y0080265D01*
X0013449Y0080155D01*
X0013545Y0080043D01*
X0013639Y0079928D01*
X0013730Y0079811D01*
X0013817Y0079692D01*
X0013901Y0079570D01*
X0013982Y0079446D01*
X0014059Y0079320D01*
X0014133Y0079192D01*
X0014204Y0079062D01*
X0014271Y0078930D01*
X0014334Y0078796D01*
X0014394Y0078661D01*
X0014450Y0078524D01*
X0014503Y0078385D01*
X0014551Y0078245D01*
X0014596Y0078104D01*
X0014637Y0077962D01*
X0014675Y0077819D01*
X0014708Y0077675D01*
X0014738Y0077530D01*
X0014764Y0077384D01*
X0014785Y0077238D01*
X0014803Y0077091D01*
X0014817Y0076944D01*
X0014827Y0076796D01*
X0014833Y0076648D01*
X0014835Y0076500D01*
X0014833Y0076352D01*
X0014827Y0076204D01*
X0014817Y0076056D01*
X0014803Y0075909D01*
X0014785Y0075762D01*
X0014764Y0075616D01*
X0014738Y0075470D01*
X0014708Y0075325D01*
X0014675Y0075181D01*
X0014637Y0075038D01*
X0014596Y0074896D01*
X0014551Y0074755D01*
X0014503Y0074615D01*
X0014450Y0074476D01*
X0014394Y0074339D01*
X0014334Y0074204D01*
X0014271Y0074070D01*
X0014204Y0073938D01*
X0014133Y0073808D01*
X0014059Y0073680D01*
X0013982Y0073554D01*
X0013901Y0073430D01*
X0013817Y0073308D01*
X0013730Y0073189D01*
X0013639Y0073072D01*
X0013545Y0072957D01*
X0013449Y0072845D01*
X0013349Y0072735D01*
X0013247Y0072629D01*
X0013141Y0072525D01*
X0013033Y0072424D01*
X0012922Y0072326D01*
X0012809Y0072230D01*
X0012693Y0072138D01*
X0012575Y0072049D01*
X0012454Y0071964D01*
X0012331Y0071881D01*
X0012206Y0071802D01*
X0012079Y0071726D01*
X0011950Y0071654D01*
X0011819Y0071585D01*
X0011686Y0071520D01*
X0011551Y0071459D01*
X0011415Y0071401D01*
X0011278Y0071346D01*
X0011139Y0071296D01*
X0010998Y0071249D01*
X0010857Y0071206D01*
X0010714Y0071166D01*
X0010570Y0071131D01*
X0010426Y0071099D01*
X0010280Y0071072D01*
X0010134Y0071048D01*
X0009987Y0071028D01*
X0009840Y0071012D01*
X0009693Y0071000D01*
X0009545Y0070992D01*
X0009397Y0070988D01*
X0009249Y0070988D01*
X0009101Y0070992D01*
X0008953Y0071000D01*
X0008806Y0071012D01*
X0008659Y0071028D01*
X0008512Y0071048D01*
X0008366Y0071072D01*
X0008220Y0071099D01*
X0008076Y0071131D01*
X0007932Y0071166D01*
X0007789Y0071206D01*
X0007648Y0071249D01*
X0007507Y0071296D01*
X0007368Y0071346D01*
X0007231Y0071401D01*
X0007095Y0071459D01*
X0006960Y0071520D01*
X0006827Y0071585D01*
X0006696Y0071654D01*
X0006567Y0071726D01*
X0006440Y0071802D01*
X0006315Y0071881D01*
X0006192Y0071964D01*
X0006071Y0072049D01*
X0005953Y0072138D01*
X0005837Y0072230D01*
X0005724Y0072326D01*
X0005613Y0072424D01*
X0005505Y0072525D01*
X0005399Y0072629D01*
X0005297Y0072735D01*
X0005197Y0072845D01*
X0005101Y0072957D01*
X0005007Y0073072D01*
X0004916Y0073189D01*
X0004829Y0073308D01*
X0004745Y0073430D01*
X0004664Y0073554D01*
X0004587Y0073680D01*
X0004513Y0073808D01*
X0004442Y0073938D01*
X0004375Y0074070D01*
X0004312Y0074204D01*
X0004252Y0074339D01*
X0004196Y0074476D01*
X0004143Y0074615D01*
X0004095Y0074755D01*
X0004050Y0074896D01*
X0004009Y0075038D01*
X0003971Y0075181D01*
X0003938Y0075325D01*
X0003908Y0075470D01*
X0003882Y0075616D01*
X0003861Y0075762D01*
X0003843Y0075909D01*
X0003829Y0076056D01*
X0003819Y0076204D01*
X0003813Y0076352D01*
X0003811Y0076500D01*
X0098811Y0076500D02*
X0098813Y0076648D01*
X0098819Y0076796D01*
X0098829Y0076944D01*
X0098843Y0077091D01*
X0098861Y0077238D01*
X0098882Y0077384D01*
X0098908Y0077530D01*
X0098938Y0077675D01*
X0098971Y0077819D01*
X0099009Y0077962D01*
X0099050Y0078104D01*
X0099095Y0078245D01*
X0099143Y0078385D01*
X0099196Y0078524D01*
X0099252Y0078661D01*
X0099312Y0078796D01*
X0099375Y0078930D01*
X0099442Y0079062D01*
X0099513Y0079192D01*
X0099587Y0079320D01*
X0099664Y0079446D01*
X0099745Y0079570D01*
X0099829Y0079692D01*
X0099916Y0079811D01*
X0100007Y0079928D01*
X0100101Y0080043D01*
X0100197Y0080155D01*
X0100297Y0080265D01*
X0100399Y0080371D01*
X0100505Y0080475D01*
X0100613Y0080576D01*
X0100724Y0080674D01*
X0100837Y0080770D01*
X0100953Y0080862D01*
X0101071Y0080951D01*
X0101192Y0081036D01*
X0101315Y0081119D01*
X0101440Y0081198D01*
X0101567Y0081274D01*
X0101696Y0081346D01*
X0101827Y0081415D01*
X0101960Y0081480D01*
X0102095Y0081541D01*
X0102231Y0081599D01*
X0102368Y0081654D01*
X0102507Y0081704D01*
X0102648Y0081751D01*
X0102789Y0081794D01*
X0102932Y0081834D01*
X0103076Y0081869D01*
X0103220Y0081901D01*
X0103366Y0081928D01*
X0103512Y0081952D01*
X0103659Y0081972D01*
X0103806Y0081988D01*
X0103953Y0082000D01*
X0104101Y0082008D01*
X0104249Y0082012D01*
X0104397Y0082012D01*
X0104545Y0082008D01*
X0104693Y0082000D01*
X0104840Y0081988D01*
X0104987Y0081972D01*
X0105134Y0081952D01*
X0105280Y0081928D01*
X0105426Y0081901D01*
X0105570Y0081869D01*
X0105714Y0081834D01*
X0105857Y0081794D01*
X0105998Y0081751D01*
X0106139Y0081704D01*
X0106278Y0081654D01*
X0106415Y0081599D01*
X0106551Y0081541D01*
X0106686Y0081480D01*
X0106819Y0081415D01*
X0106950Y0081346D01*
X0107079Y0081274D01*
X0107206Y0081198D01*
X0107331Y0081119D01*
X0107454Y0081036D01*
X0107575Y0080951D01*
X0107693Y0080862D01*
X0107809Y0080770D01*
X0107922Y0080674D01*
X0108033Y0080576D01*
X0108141Y0080475D01*
X0108247Y0080371D01*
X0108349Y0080265D01*
X0108449Y0080155D01*
X0108545Y0080043D01*
X0108639Y0079928D01*
X0108730Y0079811D01*
X0108817Y0079692D01*
X0108901Y0079570D01*
X0108982Y0079446D01*
X0109059Y0079320D01*
X0109133Y0079192D01*
X0109204Y0079062D01*
X0109271Y0078930D01*
X0109334Y0078796D01*
X0109394Y0078661D01*
X0109450Y0078524D01*
X0109503Y0078385D01*
X0109551Y0078245D01*
X0109596Y0078104D01*
X0109637Y0077962D01*
X0109675Y0077819D01*
X0109708Y0077675D01*
X0109738Y0077530D01*
X0109764Y0077384D01*
X0109785Y0077238D01*
X0109803Y0077091D01*
X0109817Y0076944D01*
X0109827Y0076796D01*
X0109833Y0076648D01*
X0109835Y0076500D01*
X0109833Y0076352D01*
X0109827Y0076204D01*
X0109817Y0076056D01*
X0109803Y0075909D01*
X0109785Y0075762D01*
X0109764Y0075616D01*
X0109738Y0075470D01*
X0109708Y0075325D01*
X0109675Y0075181D01*
X0109637Y0075038D01*
X0109596Y0074896D01*
X0109551Y0074755D01*
X0109503Y0074615D01*
X0109450Y0074476D01*
X0109394Y0074339D01*
X0109334Y0074204D01*
X0109271Y0074070D01*
X0109204Y0073938D01*
X0109133Y0073808D01*
X0109059Y0073680D01*
X0108982Y0073554D01*
X0108901Y0073430D01*
X0108817Y0073308D01*
X0108730Y0073189D01*
X0108639Y0073072D01*
X0108545Y0072957D01*
X0108449Y0072845D01*
X0108349Y0072735D01*
X0108247Y0072629D01*
X0108141Y0072525D01*
X0108033Y0072424D01*
X0107922Y0072326D01*
X0107809Y0072230D01*
X0107693Y0072138D01*
X0107575Y0072049D01*
X0107454Y0071964D01*
X0107331Y0071881D01*
X0107206Y0071802D01*
X0107079Y0071726D01*
X0106950Y0071654D01*
X0106819Y0071585D01*
X0106686Y0071520D01*
X0106551Y0071459D01*
X0106415Y0071401D01*
X0106278Y0071346D01*
X0106139Y0071296D01*
X0105998Y0071249D01*
X0105857Y0071206D01*
X0105714Y0071166D01*
X0105570Y0071131D01*
X0105426Y0071099D01*
X0105280Y0071072D01*
X0105134Y0071048D01*
X0104987Y0071028D01*
X0104840Y0071012D01*
X0104693Y0071000D01*
X0104545Y0070992D01*
X0104397Y0070988D01*
X0104249Y0070988D01*
X0104101Y0070992D01*
X0103953Y0071000D01*
X0103806Y0071012D01*
X0103659Y0071028D01*
X0103512Y0071048D01*
X0103366Y0071072D01*
X0103220Y0071099D01*
X0103076Y0071131D01*
X0102932Y0071166D01*
X0102789Y0071206D01*
X0102648Y0071249D01*
X0102507Y0071296D01*
X0102368Y0071346D01*
X0102231Y0071401D01*
X0102095Y0071459D01*
X0101960Y0071520D01*
X0101827Y0071585D01*
X0101696Y0071654D01*
X0101567Y0071726D01*
X0101440Y0071802D01*
X0101315Y0071881D01*
X0101192Y0071964D01*
X0101071Y0072049D01*
X0100953Y0072138D01*
X0100837Y0072230D01*
X0100724Y0072326D01*
X0100613Y0072424D01*
X0100505Y0072525D01*
X0100399Y0072629D01*
X0100297Y0072735D01*
X0100197Y0072845D01*
X0100101Y0072957D01*
X0100007Y0073072D01*
X0099916Y0073189D01*
X0099829Y0073308D01*
X0099745Y0073430D01*
X0099664Y0073554D01*
X0099587Y0073680D01*
X0099513Y0073808D01*
X0099442Y0073938D01*
X0099375Y0074070D01*
X0099312Y0074204D01*
X0099252Y0074339D01*
X0099196Y0074476D01*
X0099143Y0074615D01*
X0099095Y0074755D01*
X0099050Y0074896D01*
X0099009Y0075038D01*
X0098971Y0075181D01*
X0098938Y0075325D01*
X0098908Y0075470D01*
X0098882Y0075616D01*
X0098861Y0075762D01*
X0098843Y0075909D01*
X0098829Y0076056D01*
X0098819Y0076204D01*
X0098813Y0076352D01*
X0098811Y0076500D01*
X0098811Y0009000D02*
X0098813Y0009148D01*
X0098819Y0009296D01*
X0098829Y0009444D01*
X0098843Y0009591D01*
X0098861Y0009738D01*
X0098882Y0009884D01*
X0098908Y0010030D01*
X0098938Y0010175D01*
X0098971Y0010319D01*
X0099009Y0010462D01*
X0099050Y0010604D01*
X0099095Y0010745D01*
X0099143Y0010885D01*
X0099196Y0011024D01*
X0099252Y0011161D01*
X0099312Y0011296D01*
X0099375Y0011430D01*
X0099442Y0011562D01*
X0099513Y0011692D01*
X0099587Y0011820D01*
X0099664Y0011946D01*
X0099745Y0012070D01*
X0099829Y0012192D01*
X0099916Y0012311D01*
X0100007Y0012428D01*
X0100101Y0012543D01*
X0100197Y0012655D01*
X0100297Y0012765D01*
X0100399Y0012871D01*
X0100505Y0012975D01*
X0100613Y0013076D01*
X0100724Y0013174D01*
X0100837Y0013270D01*
X0100953Y0013362D01*
X0101071Y0013451D01*
X0101192Y0013536D01*
X0101315Y0013619D01*
X0101440Y0013698D01*
X0101567Y0013774D01*
X0101696Y0013846D01*
X0101827Y0013915D01*
X0101960Y0013980D01*
X0102095Y0014041D01*
X0102231Y0014099D01*
X0102368Y0014154D01*
X0102507Y0014204D01*
X0102648Y0014251D01*
X0102789Y0014294D01*
X0102932Y0014334D01*
X0103076Y0014369D01*
X0103220Y0014401D01*
X0103366Y0014428D01*
X0103512Y0014452D01*
X0103659Y0014472D01*
X0103806Y0014488D01*
X0103953Y0014500D01*
X0104101Y0014508D01*
X0104249Y0014512D01*
X0104397Y0014512D01*
X0104545Y0014508D01*
X0104693Y0014500D01*
X0104840Y0014488D01*
X0104987Y0014472D01*
X0105134Y0014452D01*
X0105280Y0014428D01*
X0105426Y0014401D01*
X0105570Y0014369D01*
X0105714Y0014334D01*
X0105857Y0014294D01*
X0105998Y0014251D01*
X0106139Y0014204D01*
X0106278Y0014154D01*
X0106415Y0014099D01*
X0106551Y0014041D01*
X0106686Y0013980D01*
X0106819Y0013915D01*
X0106950Y0013846D01*
X0107079Y0013774D01*
X0107206Y0013698D01*
X0107331Y0013619D01*
X0107454Y0013536D01*
X0107575Y0013451D01*
X0107693Y0013362D01*
X0107809Y0013270D01*
X0107922Y0013174D01*
X0108033Y0013076D01*
X0108141Y0012975D01*
X0108247Y0012871D01*
X0108349Y0012765D01*
X0108449Y0012655D01*
X0108545Y0012543D01*
X0108639Y0012428D01*
X0108730Y0012311D01*
X0108817Y0012192D01*
X0108901Y0012070D01*
X0108982Y0011946D01*
X0109059Y0011820D01*
X0109133Y0011692D01*
X0109204Y0011562D01*
X0109271Y0011430D01*
X0109334Y0011296D01*
X0109394Y0011161D01*
X0109450Y0011024D01*
X0109503Y0010885D01*
X0109551Y0010745D01*
X0109596Y0010604D01*
X0109637Y0010462D01*
X0109675Y0010319D01*
X0109708Y0010175D01*
X0109738Y0010030D01*
X0109764Y0009884D01*
X0109785Y0009738D01*
X0109803Y0009591D01*
X0109817Y0009444D01*
X0109827Y0009296D01*
X0109833Y0009148D01*
X0109835Y0009000D01*
X0109833Y0008852D01*
X0109827Y0008704D01*
X0109817Y0008556D01*
X0109803Y0008409D01*
X0109785Y0008262D01*
X0109764Y0008116D01*
X0109738Y0007970D01*
X0109708Y0007825D01*
X0109675Y0007681D01*
X0109637Y0007538D01*
X0109596Y0007396D01*
X0109551Y0007255D01*
X0109503Y0007115D01*
X0109450Y0006976D01*
X0109394Y0006839D01*
X0109334Y0006704D01*
X0109271Y0006570D01*
X0109204Y0006438D01*
X0109133Y0006308D01*
X0109059Y0006180D01*
X0108982Y0006054D01*
X0108901Y0005930D01*
X0108817Y0005808D01*
X0108730Y0005689D01*
X0108639Y0005572D01*
X0108545Y0005457D01*
X0108449Y0005345D01*
X0108349Y0005235D01*
X0108247Y0005129D01*
X0108141Y0005025D01*
X0108033Y0004924D01*
X0107922Y0004826D01*
X0107809Y0004730D01*
X0107693Y0004638D01*
X0107575Y0004549D01*
X0107454Y0004464D01*
X0107331Y0004381D01*
X0107206Y0004302D01*
X0107079Y0004226D01*
X0106950Y0004154D01*
X0106819Y0004085D01*
X0106686Y0004020D01*
X0106551Y0003959D01*
X0106415Y0003901D01*
X0106278Y0003846D01*
X0106139Y0003796D01*
X0105998Y0003749D01*
X0105857Y0003706D01*
X0105714Y0003666D01*
X0105570Y0003631D01*
X0105426Y0003599D01*
X0105280Y0003572D01*
X0105134Y0003548D01*
X0104987Y0003528D01*
X0104840Y0003512D01*
X0104693Y0003500D01*
X0104545Y0003492D01*
X0104397Y0003488D01*
X0104249Y0003488D01*
X0104101Y0003492D01*
X0103953Y0003500D01*
X0103806Y0003512D01*
X0103659Y0003528D01*
X0103512Y0003548D01*
X0103366Y0003572D01*
X0103220Y0003599D01*
X0103076Y0003631D01*
X0102932Y0003666D01*
X0102789Y0003706D01*
X0102648Y0003749D01*
X0102507Y0003796D01*
X0102368Y0003846D01*
X0102231Y0003901D01*
X0102095Y0003959D01*
X0101960Y0004020D01*
X0101827Y0004085D01*
X0101696Y0004154D01*
X0101567Y0004226D01*
X0101440Y0004302D01*
X0101315Y0004381D01*
X0101192Y0004464D01*
X0101071Y0004549D01*
X0100953Y0004638D01*
X0100837Y0004730D01*
X0100724Y0004826D01*
X0100613Y0004924D01*
X0100505Y0005025D01*
X0100399Y0005129D01*
X0100297Y0005235D01*
X0100197Y0005345D01*
X0100101Y0005457D01*
X0100007Y0005572D01*
X0099916Y0005689D01*
X0099829Y0005808D01*
X0099745Y0005930D01*
X0099664Y0006054D01*
X0099587Y0006180D01*
X0099513Y0006308D01*
X0099442Y0006438D01*
X0099375Y0006570D01*
X0099312Y0006704D01*
X0099252Y0006839D01*
X0099196Y0006976D01*
X0099143Y0007115D01*
X0099095Y0007255D01*
X0099050Y0007396D01*
X0099009Y0007538D01*
X0098971Y0007681D01*
X0098938Y0007825D01*
X0098908Y0007970D01*
X0098882Y0008116D01*
X0098861Y0008262D01*
X0098843Y0008409D01*
X0098829Y0008556D01*
X0098819Y0008704D01*
X0098813Y0008852D01*
X0098811Y0009000D01*
D12*
X0097511Y0008993D02*
X0094685Y0008993D01*
X0094557Y0008864D02*
X0096958Y0011266D01*
X0096958Y0014663D01*
X0094557Y0017064D01*
X0091160Y0017064D01*
X0088759Y0014663D01*
X0088759Y0013300D01*
X0077569Y0013300D01*
X0072756Y0018113D01*
X0072148Y0018113D01*
X0072148Y0019626D01*
X0071386Y0020388D01*
X0070033Y0020388D01*
X0070313Y0020531D01*
X0070858Y0020926D01*
X0071334Y0021402D01*
X0071729Y0021947D01*
X0072035Y0022546D01*
X0072243Y0023186D01*
X0072348Y0023851D01*
X0072348Y0023900D01*
X0068360Y0023900D01*
X0068360Y0024474D01*
X0072348Y0024474D01*
X0072348Y0024523D01*
X0072243Y0025188D01*
X0072035Y0025828D01*
X0071729Y0026427D01*
X0071408Y0026869D01*
X0077523Y0020754D01*
X0078577Y0019700D01*
X0081687Y0019700D01*
X0081687Y0018337D01*
X0084089Y0015936D01*
X0087486Y0015936D01*
X0089887Y0018337D01*
X0089887Y0019519D01*
X0090069Y0019700D01*
X0095955Y0019700D01*
X0096101Y0019347D01*
X0097170Y0018279D01*
X0098567Y0017700D01*
X0100079Y0017700D01*
X0101475Y0018279D01*
X0102544Y0019347D01*
X0103123Y0020744D01*
X0103123Y0022256D01*
X0102544Y0023653D01*
X0101475Y0024721D01*
X0101123Y0024867D01*
X0101123Y0028450D01*
X0103355Y0028450D01*
X0104256Y0029351D01*
X0104460Y0028998D01*
X0104821Y0028637D01*
X0105263Y0028382D01*
X0105755Y0028250D01*
X0106948Y0028250D01*
X0106948Y0031125D01*
X0107698Y0031125D01*
X0107698Y0028250D01*
X0108891Y0028250D01*
X0109383Y0028382D01*
X0109825Y0028637D01*
X0110123Y0028935D01*
X0110123Y0012798D01*
X0110098Y0012859D01*
X0108182Y0014775D01*
X0105678Y0015812D01*
X0102968Y0015812D01*
X0100464Y0014775D01*
X0098548Y0012859D01*
X0097511Y0010355D01*
X0097511Y0007645D01*
X0098548Y0005141D01*
X0100464Y0003225D01*
X0100525Y0003200D01*
X0013121Y0003200D01*
X0013182Y0003225D01*
X0015098Y0005141D01*
X0016135Y0007645D01*
X0016135Y0010355D01*
X0015098Y0012859D01*
X0013182Y0014775D01*
X0010678Y0015812D01*
X0007968Y0015812D01*
X0005464Y0014775D01*
X0003548Y0012859D01*
X0003523Y0012798D01*
X0003523Y0072702D01*
X0003548Y0072641D01*
X0005464Y0070725D01*
X0007968Y0069688D01*
X0010678Y0069688D01*
X0013182Y0070725D01*
X0015098Y0072641D01*
X0016135Y0075145D01*
X0016135Y0077855D01*
X0015098Y0080359D01*
X0013256Y0082200D01*
X0100390Y0082200D01*
X0098548Y0080359D01*
X0097511Y0077855D01*
X0097511Y0075145D01*
X0098548Y0072641D01*
X0100464Y0070725D01*
X0102968Y0069688D01*
X0105678Y0069688D01*
X0108182Y0070725D01*
X0110098Y0072641D01*
X0110123Y0072702D01*
X0110123Y0044065D01*
X0109825Y0044363D01*
X0109383Y0044618D01*
X0108891Y0044750D01*
X0107698Y0044750D01*
X0107698Y0041875D01*
X0106948Y0041875D01*
X0106948Y0044750D01*
X0105755Y0044750D01*
X0105263Y0044618D01*
X0104821Y0044363D01*
X0104460Y0044002D01*
X0104256Y0043649D01*
X0103355Y0044550D01*
X0099291Y0044550D01*
X0098273Y0043532D01*
X0098273Y0039468D01*
X0099291Y0038450D01*
X0099523Y0038450D01*
X0099523Y0034550D01*
X0099291Y0034550D01*
X0098273Y0033532D01*
X0098273Y0030996D01*
X0097523Y0030246D01*
X0097523Y0024867D01*
X0097170Y0024721D01*
X0096101Y0023653D01*
X0095955Y0023300D01*
X0088577Y0023300D01*
X0088449Y0023172D01*
X0087486Y0024136D01*
X0084089Y0024136D01*
X0083254Y0023300D01*
X0080069Y0023300D01*
X0076169Y0027200D01*
X0083495Y0027200D01*
X0083495Y0026887D01*
X0084257Y0026125D01*
X0088483Y0026125D01*
X0089245Y0026887D01*
X0089245Y0027063D01*
X0089303Y0026846D01*
X0089501Y0026504D01*
X0089780Y0026225D01*
X0090122Y0026027D01*
X0090503Y0025925D01*
X0091988Y0025925D01*
X0091988Y0028713D01*
X0092563Y0028713D01*
X0092563Y0029287D01*
X0095351Y0029287D01*
X0095351Y0030772D01*
X0095248Y0031154D01*
X0095051Y0031496D01*
X0094772Y0031775D01*
X0094430Y0031973D01*
X0094048Y0032075D01*
X0092563Y0032075D01*
X0092563Y0029287D01*
X0091988Y0029287D01*
X0091988Y0032075D01*
X0090503Y0032075D01*
X0090122Y0031973D01*
X0089780Y0031775D01*
X0089501Y0031496D01*
X0089303Y0031154D01*
X0089245Y0030937D01*
X0089245Y0031113D01*
X0088483Y0031875D01*
X0084257Y0031875D01*
X0083495Y0031113D01*
X0083495Y0030800D01*
X0077569Y0030800D01*
X0074369Y0034000D01*
X0077577Y0034000D01*
X0079377Y0032200D01*
X0092569Y0032200D01*
X0093623Y0033254D01*
X0096123Y0035754D01*
X0096123Y0067246D01*
X0095069Y0068300D01*
X0082569Y0080800D01*
X0051077Y0080800D01*
X0050023Y0079746D01*
X0043577Y0073300D01*
X0036077Y0073300D01*
X0035023Y0072246D01*
X0028732Y0065955D01*
X0026187Y0068500D01*
X0022459Y0068500D01*
X0019823Y0065864D01*
X0019823Y0062136D01*
X0022459Y0059500D01*
X0026187Y0059500D01*
X0028823Y0062136D01*
X0028823Y0062200D01*
X0030069Y0062200D01*
X0037569Y0069700D01*
X0045069Y0069700D01*
X0052569Y0077200D01*
X0054077Y0077200D01*
X0043177Y0066300D01*
X0042373Y0066300D01*
X0042373Y0066532D01*
X0041355Y0067550D01*
X0037291Y0067550D01*
X0036273Y0066532D01*
X0036273Y0062468D01*
X0037241Y0061500D01*
X0036273Y0060532D01*
X0036273Y0060000D01*
X0027877Y0060000D01*
X0026282Y0058405D01*
X0026187Y0058500D01*
X0022459Y0058500D01*
X0019823Y0055864D01*
X0019823Y0052136D01*
X0020959Y0051000D01*
X0020369Y0051000D01*
X0018823Y0052546D01*
X0018823Y0055864D01*
X0016187Y0058500D01*
X0012459Y0058500D01*
X0009823Y0055864D01*
X0009823Y0052136D01*
X0009968Y0051991D01*
X0007923Y0049946D01*
X0007923Y0040354D01*
X0008977Y0039300D01*
X0008977Y0039300D01*
X0015773Y0032504D01*
X0015773Y0029468D01*
X0016791Y0028450D01*
X0020855Y0028450D01*
X0021823Y0029418D01*
X0022791Y0028450D01*
X0025327Y0028450D01*
X0032901Y0020876D01*
X0031259Y0019234D01*
X0031259Y0015837D01*
X0033660Y0013436D01*
X0037057Y0013436D01*
X0039458Y0015837D01*
X0039458Y0019234D01*
X0037158Y0021534D01*
X0037158Y0021710D01*
X0027873Y0030996D01*
X0027873Y0032904D01*
X0043513Y0017264D01*
X0041506Y0017264D01*
X0040459Y0016217D01*
X0043287Y0013389D01*
X0042863Y0012964D01*
X0043287Y0012540D01*
X0040459Y0009712D01*
X0041506Y0008664D01*
X0045069Y0008664D01*
X0046116Y0009712D01*
X0043287Y0012540D01*
X0043712Y0012964D01*
X0046540Y0010136D01*
X0047587Y0011183D01*
X0047587Y0013190D01*
X0048577Y0012200D01*
X0055069Y0012200D01*
X0056123Y0013254D01*
X0056123Y0013254D01*
X0060573Y0017704D01*
X0063764Y0014513D01*
X0063998Y0014513D01*
X0063998Y0013000D01*
X0064760Y0012238D01*
X0071386Y0012238D01*
X0072148Y0013000D01*
X0072148Y0013630D01*
X0075023Y0010754D01*
X0076077Y0009700D01*
X0090325Y0009700D01*
X0091160Y0008864D01*
X0094557Y0008864D01*
X0095683Y0009991D02*
X0097511Y0009991D01*
X0097774Y0010990D02*
X0096682Y0010990D01*
X0096958Y0011988D02*
X0098188Y0011988D01*
X0098676Y0012987D02*
X0096958Y0012987D01*
X0096958Y0013985D02*
X0099675Y0013985D01*
X0100969Y0014984D02*
X0096638Y0014984D01*
X0095639Y0015982D02*
X0110123Y0015982D01*
X0110123Y0014984D02*
X0107677Y0014984D01*
X0108971Y0013985D02*
X0110123Y0013985D01*
X0110123Y0012987D02*
X0109970Y0012987D01*
X0110123Y0016981D02*
X0094641Y0016981D01*
X0094323Y0019000D02*
X0091823Y0019000D01*
X0086823Y0014000D01*
X0078260Y0014000D01*
X0068073Y0024187D01*
X0061823Y0030437D01*
X0061823Y0041500D01*
X0071823Y0051500D01*
X0074023Y0051500D01*
X0074523Y0051000D01*
X0077223Y0051000D01*
X0077623Y0051500D01*
X0078123Y0051900D01*
X0078123Y0058200D01*
X0077323Y0059000D01*
X0077323Y0063000D01*
X0069323Y0071000D01*
X0069823Y0070900D02*
X0074367Y0070900D01*
X0074323Y0071005D02*
X0075084Y0069168D01*
X0076491Y0067761D01*
X0078328Y0067000D01*
X0080318Y0067000D01*
X0081562Y0067515D01*
X0086909Y0062168D01*
X0086273Y0061532D01*
X0086273Y0057468D01*
X0087241Y0056500D01*
X0086273Y0055532D01*
X0086273Y0051468D01*
X0087291Y0050450D01*
X0088023Y0050450D01*
X0088023Y0047550D01*
X0087291Y0047550D01*
X0086273Y0046532D01*
X0086273Y0045600D01*
X0083273Y0045600D01*
X0083273Y0048238D01*
X0082588Y0048923D01*
X0082894Y0049100D01*
X0083173Y0049379D01*
X0083371Y0049721D01*
X0083473Y0050103D01*
X0083473Y0051400D01*
X0077723Y0051400D01*
X0077723Y0051600D01*
X0083473Y0051600D01*
X0083473Y0052897D01*
X0083371Y0053279D01*
X0083173Y0053621D01*
X0082894Y0053900D01*
X0082552Y0054098D01*
X0082170Y0054200D01*
X0077723Y0054200D01*
X0077723Y0051600D01*
X0077523Y0051600D01*
X0077523Y0054200D01*
X0073075Y0054200D01*
X0072694Y0054098D01*
X0072352Y0053900D01*
X0072073Y0053621D01*
X0071875Y0053279D01*
X0071773Y0052897D01*
X0071773Y0051600D01*
X0077523Y0051600D01*
X0077523Y0051400D01*
X0071773Y0051400D01*
X0071773Y0050103D01*
X0071875Y0049721D01*
X0072073Y0049379D01*
X0072352Y0049100D01*
X0072658Y0048923D01*
X0072034Y0048300D01*
X0071077Y0048300D01*
X0063577Y0040800D01*
X0062523Y0039746D01*
X0062523Y0035754D01*
X0070755Y0027522D01*
X0070313Y0027843D01*
X0069714Y0028149D01*
X0069074Y0028357D01*
X0068409Y0028462D01*
X0068360Y0028462D01*
X0068360Y0024474D01*
X0067786Y0024474D01*
X0067785Y0024474D02*
X0067785Y0023900D01*
X0063798Y0023900D01*
X0063798Y0023851D01*
X0063903Y0023186D01*
X0064111Y0022546D01*
X0064417Y0021947D01*
X0064812Y0021402D01*
X0065288Y0020926D01*
X0065832Y0020531D01*
X0066113Y0020388D01*
X0064760Y0020388D01*
X0063998Y0019626D01*
X0063998Y0019370D01*
X0062373Y0020996D01*
X0051123Y0032246D01*
X0051123Y0033954D01*
X0051169Y0034000D01*
X0056011Y0034000D01*
X0056773Y0034762D01*
X0056773Y0037004D01*
X0061023Y0041254D01*
X0061023Y0054446D01*
X0060294Y0055175D01*
X0061123Y0056004D01*
X0061123Y0057300D01*
X0068273Y0057300D01*
X0068273Y0056968D01*
X0069291Y0055950D01*
X0073355Y0055950D01*
X0074256Y0056851D01*
X0074460Y0056498D01*
X0074821Y0056137D01*
X0075263Y0055882D01*
X0075755Y0055750D01*
X0076948Y0055750D01*
X0076948Y0058625D01*
X0077698Y0058625D01*
X0077698Y0059375D01*
X0080573Y0059375D01*
X0080573Y0060568D01*
X0080441Y0061060D01*
X0080186Y0061502D01*
X0079825Y0061863D01*
X0079383Y0062118D01*
X0078891Y0062250D01*
X0077698Y0062250D01*
X0077698Y0059375D01*
X0076948Y0059375D01*
X0076948Y0062250D01*
X0075755Y0062250D01*
X0075263Y0062118D01*
X0074821Y0061863D01*
X0074460Y0061502D01*
X0074256Y0061149D01*
X0073355Y0062050D01*
X0069291Y0062050D01*
X0068273Y0061032D01*
X0068273Y0060900D01*
X0061123Y0060900D01*
X0061123Y0061996D01*
X0060069Y0063050D01*
X0055577Y0063050D01*
X0054523Y0061996D01*
X0054523Y0056400D01*
X0054123Y0056400D01*
X0054123Y0061996D01*
X0053094Y0063025D01*
X0057438Y0067369D01*
X0058328Y0067000D01*
X0060318Y0067000D01*
X0062155Y0067761D01*
X0063562Y0069168D01*
X0064323Y0071005D01*
X0064323Y0071500D01*
X0068823Y0071500D01*
X0068823Y0070500D01*
X0069823Y0070500D01*
X0069823Y0071500D01*
X0074323Y0071500D01*
X0074323Y0071005D01*
X0074509Y0070500D02*
X0069823Y0070500D01*
X0069823Y0065814D01*
X0070541Y0065928D01*
X0071319Y0066181D01*
X0072048Y0066553D01*
X0072711Y0067034D01*
X0073289Y0067612D01*
X0073770Y0068275D01*
X0074142Y0069004D01*
X0074395Y0069782D01*
X0074509Y0070500D01*
X0074414Y0069902D02*
X0074780Y0069902D01*
X0075349Y0068903D02*
X0074091Y0068903D01*
X0073502Y0067905D02*
X0076347Y0067905D01*
X0072535Y0066906D02*
X0082171Y0066906D01*
X0083170Y0065908D02*
X0070412Y0065908D01*
X0069823Y0065908D02*
X0068823Y0065908D01*
X0068823Y0065814D02*
X0068823Y0070500D01*
X0064137Y0070500D01*
X0064251Y0069782D01*
X0064504Y0069004D01*
X0064876Y0068275D01*
X0065357Y0067612D01*
X0065935Y0067034D01*
X0066598Y0066553D01*
X0067327Y0066181D01*
X0068105Y0065928D01*
X0068823Y0065814D01*
X0068234Y0065908D02*
X0055976Y0065908D01*
X0056975Y0066906D02*
X0066111Y0066906D01*
X0065144Y0067905D02*
X0062299Y0067905D01*
X0063297Y0068903D02*
X0064555Y0068903D01*
X0064232Y0069902D02*
X0063866Y0069902D01*
X0064279Y0070900D02*
X0068823Y0070900D01*
X0068823Y0069902D02*
X0069823Y0069902D01*
X0069823Y0068903D02*
X0068823Y0068903D01*
X0068823Y0067905D02*
X0069823Y0067905D01*
X0069823Y0066906D02*
X0068823Y0066906D01*
X0069154Y0061914D02*
X0061123Y0061914D01*
X0061123Y0060915D02*
X0068273Y0060915D01*
X0070923Y0059100D02*
X0071323Y0059000D01*
X0070923Y0059100D02*
X0058323Y0059100D01*
X0057823Y0059000D01*
X0059323Y0056750D02*
X0056323Y0056750D01*
X0056323Y0061250D01*
X0059323Y0061250D01*
X0059323Y0056750D01*
X0059323Y0057749D02*
X0056323Y0057749D01*
X0056323Y0058748D02*
X0059323Y0058748D01*
X0059323Y0059747D02*
X0056323Y0059747D01*
X0056323Y0060746D02*
X0059323Y0060746D01*
X0057823Y0059000D02*
X0058323Y0058200D01*
X0058323Y0054600D01*
X0059223Y0053700D01*
X0059223Y0042000D01*
X0053823Y0036600D01*
X0051123Y0036600D01*
X0051123Y0036500D01*
X0049323Y0034700D01*
X0049323Y0031500D01*
X0060573Y0020250D01*
X0054323Y0014000D01*
X0049323Y0014000D01*
X0026823Y0036500D01*
X0021823Y0036500D01*
X0017823Y0040500D01*
X0017823Y0043800D01*
X0015123Y0043800D01*
X0014323Y0044000D01*
X0009723Y0041100D02*
X0009723Y0049200D01*
X0014223Y0053700D01*
X0014323Y0054000D01*
X0015123Y0053700D01*
X0019623Y0049200D01*
X0025923Y0049200D01*
X0027723Y0051000D01*
X0051123Y0051000D01*
X0051123Y0051500D01*
X0055623Y0054600D02*
X0043023Y0054600D01*
X0039423Y0058200D01*
X0039323Y0058500D01*
X0038523Y0058200D01*
X0028623Y0058200D01*
X0025023Y0054600D01*
X0024323Y0054000D01*
X0020880Y0056921D02*
X0017766Y0056921D01*
X0018764Y0055923D02*
X0019882Y0055923D01*
X0019823Y0054924D02*
X0018823Y0054924D01*
X0018823Y0053926D02*
X0019823Y0053926D01*
X0019823Y0052927D02*
X0018823Y0052927D01*
X0019440Y0051929D02*
X0020030Y0051929D01*
X0021879Y0057920D02*
X0016767Y0057920D01*
X0016270Y0059300D02*
X0019023Y0062053D01*
X0019023Y0063500D01*
X0014823Y0063500D01*
X0014823Y0064500D01*
X0019023Y0064500D01*
X0019023Y0065947D01*
X0016270Y0068700D01*
X0014823Y0068700D01*
X0014823Y0064500D01*
X0013823Y0064500D01*
X0013823Y0068700D01*
X0012376Y0068700D01*
X0009623Y0065947D01*
X0009623Y0064500D01*
X0013823Y0064500D01*
X0013823Y0063500D01*
X0014823Y0063500D01*
X0014823Y0059300D01*
X0016270Y0059300D01*
X0016886Y0059917D02*
X0022042Y0059917D01*
X0021044Y0060915D02*
X0017885Y0060915D01*
X0018883Y0061914D02*
X0020045Y0061914D01*
X0019823Y0062912D02*
X0019023Y0062912D01*
X0019823Y0063911D02*
X0014823Y0063911D01*
X0014323Y0064000D02*
X0016823Y0064000D01*
X0026823Y0074000D01*
X0034323Y0074000D01*
X0041823Y0081500D01*
X0084323Y0081500D01*
X0106823Y0059000D01*
X0106823Y0049000D01*
X0106823Y0042000D01*
X0107323Y0041500D01*
X0107323Y0031500D01*
X0106823Y0031000D01*
X0106823Y0021500D01*
X0101823Y0016500D01*
X0096823Y0016500D01*
X0094323Y0019000D01*
X0096471Y0018978D02*
X0089887Y0018978D01*
X0089529Y0017979D02*
X0097893Y0017979D01*
X0100753Y0017979D02*
X0110123Y0017979D01*
X0110123Y0018978D02*
X0102175Y0018978D01*
X0102805Y0019976D02*
X0110123Y0019976D01*
X0110123Y0020975D02*
X0103123Y0020975D01*
X0103123Y0021973D02*
X0110123Y0021973D01*
X0110123Y0022972D02*
X0102826Y0022972D01*
X0102227Y0023970D02*
X0110123Y0023970D01*
X0110123Y0024969D02*
X0101123Y0024969D01*
X0101123Y0025967D02*
X0110123Y0025967D01*
X0110123Y0026966D02*
X0101123Y0026966D01*
X0101123Y0027964D02*
X0110123Y0027964D01*
X0107698Y0028963D02*
X0106948Y0028963D01*
X0106948Y0029961D02*
X0107698Y0029961D01*
X0107698Y0030960D02*
X0106948Y0030960D01*
X0106948Y0031875D02*
X0106948Y0034750D01*
X0105755Y0034750D01*
X0105263Y0034618D01*
X0104821Y0034363D01*
X0104460Y0034002D01*
X0104256Y0033649D01*
X0103355Y0034550D01*
X0103123Y0034550D01*
X0103123Y0038450D01*
X0103355Y0038450D01*
X0104256Y0039351D01*
X0104460Y0038998D01*
X0104821Y0038637D01*
X0105263Y0038382D01*
X0105755Y0038250D01*
X0106948Y0038250D01*
X0106948Y0041125D01*
X0107698Y0041125D01*
X0107698Y0038250D01*
X0108891Y0038250D01*
X0109383Y0038382D01*
X0109825Y0038637D01*
X0110123Y0038935D01*
X0110123Y0034065D01*
X0109825Y0034363D01*
X0109383Y0034618D01*
X0108891Y0034750D01*
X0107698Y0034750D01*
X0107698Y0031875D01*
X0106948Y0031875D01*
X0106948Y0031958D02*
X0107698Y0031958D01*
X0107698Y0032957D02*
X0106948Y0032957D01*
X0106948Y0033955D02*
X0107698Y0033955D01*
X0110123Y0034954D02*
X0103123Y0034954D01*
X0103123Y0035952D02*
X0110123Y0035952D01*
X0110123Y0036951D02*
X0103123Y0036951D01*
X0103123Y0037949D02*
X0110123Y0037949D01*
X0107698Y0038948D02*
X0106948Y0038948D01*
X0106948Y0039946D02*
X0107698Y0039946D01*
X0107698Y0040945D02*
X0106948Y0040945D01*
X0106948Y0041943D02*
X0107698Y0041943D01*
X0107698Y0042942D02*
X0106948Y0042942D01*
X0106948Y0043940D02*
X0107698Y0043940D01*
X0110123Y0044939D02*
X0096123Y0044939D01*
X0096123Y0045937D02*
X0110123Y0045937D01*
X0110123Y0046936D02*
X0096123Y0046936D01*
X0096123Y0047934D02*
X0110123Y0047934D01*
X0110123Y0048933D02*
X0096123Y0048933D01*
X0096123Y0049932D02*
X0110123Y0049932D01*
X0110123Y0050930D02*
X0096123Y0050930D01*
X0096123Y0051929D02*
X0110123Y0051929D01*
X0110123Y0052927D02*
X0096123Y0052927D01*
X0096123Y0053926D02*
X0110123Y0053926D01*
X0110123Y0054924D02*
X0096123Y0054924D01*
X0096123Y0055923D02*
X0110123Y0055923D01*
X0110123Y0056921D02*
X0096123Y0056921D01*
X0096123Y0057920D02*
X0110123Y0057920D01*
X0110123Y0058918D02*
X0096123Y0058918D01*
X0096123Y0059917D02*
X0110123Y0059917D01*
X0110123Y0060915D02*
X0096123Y0060915D01*
X0096123Y0061914D02*
X0110123Y0061914D01*
X0110123Y0062912D02*
X0096123Y0062912D01*
X0096123Y0063911D02*
X0110123Y0063911D01*
X0110123Y0064909D02*
X0096123Y0064909D01*
X0096123Y0065908D02*
X0110123Y0065908D01*
X0110123Y0066906D02*
X0096123Y0066906D01*
X0095464Y0067905D02*
X0110123Y0067905D01*
X0110123Y0068903D02*
X0094465Y0068903D01*
X0093467Y0069902D02*
X0102452Y0069902D01*
X0100289Y0070900D02*
X0092468Y0070900D01*
X0091470Y0071899D02*
X0099291Y0071899D01*
X0098442Y0072897D02*
X0090471Y0072897D01*
X0089473Y0073896D02*
X0098029Y0073896D01*
X0097615Y0074894D02*
X0088474Y0074894D01*
X0087476Y0075893D02*
X0097511Y0075893D01*
X0097511Y0076891D02*
X0086477Y0076891D01*
X0085479Y0077890D02*
X0097526Y0077890D01*
X0097939Y0078888D02*
X0084480Y0078888D01*
X0083482Y0079887D02*
X0098353Y0079887D01*
X0099075Y0080885D02*
X0014571Y0080885D01*
X0015293Y0079887D02*
X0050164Y0079887D01*
X0049166Y0078888D02*
X0015707Y0078888D01*
X0016120Y0077890D02*
X0048167Y0077890D01*
X0047169Y0076891D02*
X0016135Y0076891D01*
X0016135Y0075893D02*
X0046170Y0075893D01*
X0045172Y0074894D02*
X0016031Y0074894D01*
X0015617Y0073896D02*
X0044173Y0073896D01*
X0047267Y0071899D02*
X0048776Y0071899D01*
X0048266Y0072897D02*
X0049775Y0072897D01*
X0049264Y0073896D02*
X0050773Y0073896D01*
X0050263Y0074894D02*
X0051772Y0074894D01*
X0051261Y0075893D02*
X0052770Y0075893D01*
X0052260Y0076891D02*
X0053769Y0076891D01*
X0051823Y0079000D02*
X0081823Y0079000D01*
X0094323Y0066500D01*
X0094323Y0036500D01*
X0091823Y0034000D01*
X0080123Y0034000D01*
X0077623Y0036500D01*
X0077622Y0033955D02*
X0074413Y0033955D01*
X0075412Y0032957D02*
X0078621Y0032957D01*
X0076410Y0031958D02*
X0090097Y0031958D01*
X0089251Y0030960D02*
X0089245Y0030960D01*
X0091988Y0030960D02*
X0092563Y0030960D01*
X0092563Y0029961D02*
X0091988Y0029961D01*
X0092276Y0029453D02*
X0096823Y0034000D01*
X0096823Y0044000D01*
X0101823Y0049000D01*
X0106823Y0049000D01*
X0104424Y0043940D02*
X0103965Y0043940D01*
X0101323Y0041500D02*
X0101323Y0031500D01*
X0099323Y0029500D01*
X0099323Y0021500D01*
X0091823Y0021500D01*
X0089323Y0021500D01*
X0087859Y0020036D01*
X0085787Y0020036D01*
X0085787Y0020036D01*
X0084323Y0021500D01*
X0079323Y0021500D01*
X0064323Y0036500D01*
X0064323Y0039000D01*
X0071823Y0046500D01*
X0077623Y0046500D01*
X0079923Y0043800D02*
X0077623Y0041500D01*
X0079923Y0043800D02*
X0088923Y0043800D01*
X0089323Y0044500D01*
X0089823Y0044700D01*
X0089823Y0052800D01*
X0089323Y0053500D01*
X0086273Y0053926D02*
X0082850Y0053926D01*
X0083465Y0052927D02*
X0086273Y0052927D01*
X0086273Y0051929D02*
X0083473Y0051929D01*
X0083473Y0050930D02*
X0086811Y0050930D01*
X0088023Y0049932D02*
X0083427Y0049932D01*
X0082605Y0048933D02*
X0088023Y0048933D01*
X0088023Y0047934D02*
X0083273Y0047934D01*
X0083273Y0046936D02*
X0086677Y0046936D01*
X0086273Y0045937D02*
X0083273Y0045937D01*
X0077723Y0051929D02*
X0077523Y0051929D01*
X0077523Y0052927D02*
X0077723Y0052927D01*
X0077723Y0053926D02*
X0077523Y0053926D01*
X0077698Y0055750D02*
X0078891Y0055750D01*
X0079383Y0055882D01*
X0079825Y0056137D01*
X0080186Y0056498D01*
X0080441Y0056940D01*
X0080573Y0057432D01*
X0080573Y0058625D01*
X0077698Y0058625D01*
X0077698Y0055750D01*
X0077698Y0055923D02*
X0076948Y0055923D01*
X0076948Y0056921D02*
X0077698Y0056921D01*
X0077698Y0057920D02*
X0076948Y0057920D01*
X0077698Y0058918D02*
X0086273Y0058918D01*
X0086273Y0057920D02*
X0080573Y0057920D01*
X0080430Y0056921D02*
X0086820Y0056921D01*
X0086663Y0055923D02*
X0079454Y0055923D01*
X0075192Y0055923D02*
X0061041Y0055923D01*
X0061123Y0056921D02*
X0068320Y0056921D01*
X0072396Y0053926D02*
X0061023Y0053926D01*
X0061023Y0052927D02*
X0071781Y0052927D01*
X0071773Y0051929D02*
X0061023Y0051929D01*
X0061023Y0050930D02*
X0071773Y0050930D01*
X0071819Y0049932D02*
X0061023Y0049932D01*
X0061023Y0048933D02*
X0072641Y0048933D01*
X0070712Y0047934D02*
X0061023Y0047934D01*
X0061023Y0046936D02*
X0069713Y0046936D01*
X0068715Y0045937D02*
X0061023Y0045937D01*
X0061023Y0044939D02*
X0067716Y0044939D01*
X0066718Y0043940D02*
X0061023Y0043940D01*
X0061023Y0042942D02*
X0065719Y0042942D01*
X0064721Y0041943D02*
X0061023Y0041943D01*
X0060713Y0040945D02*
X0063722Y0040945D01*
X0062724Y0039946D02*
X0059715Y0039946D01*
X0058716Y0038948D02*
X0062523Y0038948D01*
X0062523Y0037949D02*
X0057718Y0037949D01*
X0056773Y0036951D02*
X0062523Y0036951D01*
X0062523Y0035952D02*
X0056773Y0035952D01*
X0056773Y0034954D02*
X0063324Y0034954D01*
X0064322Y0033955D02*
X0051124Y0033955D01*
X0051123Y0032957D02*
X0065321Y0032957D01*
X0066319Y0031958D02*
X0051410Y0031958D01*
X0052409Y0030960D02*
X0067318Y0030960D01*
X0068316Y0029961D02*
X0053407Y0029961D01*
X0054406Y0028963D02*
X0069315Y0028963D01*
X0070076Y0027964D02*
X0070313Y0027964D01*
X0068360Y0027964D02*
X0067786Y0027964D01*
X0067786Y0028462D02*
X0067737Y0028462D01*
X0067072Y0028357D01*
X0066432Y0028149D01*
X0065832Y0027843D01*
X0065288Y0027448D01*
X0064812Y0026972D01*
X0064417Y0026427D01*
X0064111Y0025828D01*
X0063903Y0025188D01*
X0063798Y0024523D01*
X0063798Y0024474D01*
X0067785Y0024474D01*
X0067786Y0024474D02*
X0067786Y0028462D01*
X0067786Y0026966D02*
X0068360Y0026966D01*
X0068360Y0025967D02*
X0067786Y0025967D01*
X0067786Y0024969D02*
X0068360Y0024969D01*
X0068360Y0023970D02*
X0074307Y0023970D01*
X0075306Y0022972D02*
X0072173Y0022972D01*
X0071743Y0021973D02*
X0076304Y0021973D01*
X0077303Y0020975D02*
X0070906Y0020975D01*
X0071798Y0019976D02*
X0078301Y0019976D01*
X0081687Y0018978D02*
X0072148Y0018978D01*
X0072889Y0017979D02*
X0082046Y0017979D01*
X0083044Y0016981D02*
X0073888Y0016981D01*
X0074886Y0015982D02*
X0084043Y0015982D01*
X0087532Y0015982D02*
X0090078Y0015982D01*
X0089079Y0014984D02*
X0075885Y0014984D01*
X0076883Y0013985D02*
X0088759Y0013985D01*
X0088531Y0016981D02*
X0091076Y0016981D01*
X0092859Y0012964D02*
X0091394Y0011500D01*
X0076823Y0011500D01*
X0072010Y0016313D01*
X0068073Y0016313D01*
X0064510Y0016313D01*
X0060573Y0020250D01*
X0062394Y0020975D02*
X0065240Y0020975D01*
X0064403Y0021973D02*
X0061395Y0021973D01*
X0060397Y0022972D02*
X0063973Y0022972D01*
X0063869Y0024969D02*
X0058400Y0024969D01*
X0059398Y0023970D02*
X0067785Y0023970D01*
X0064182Y0025967D02*
X0057401Y0025967D01*
X0056403Y0026966D02*
X0064808Y0026966D01*
X0066070Y0027964D02*
X0055404Y0027964D01*
X0050359Y0020036D02*
X0047523Y0020400D01*
X0039423Y0028500D01*
X0039423Y0038400D01*
X0039323Y0038500D01*
X0039323Y0044500D02*
X0038523Y0044700D01*
X0025023Y0044700D01*
X0024323Y0044000D01*
X0013324Y0034954D02*
X0003523Y0034954D01*
X0003523Y0035952D02*
X0012325Y0035952D01*
X0011327Y0036951D02*
X0003523Y0036951D01*
X0003523Y0037949D02*
X0010328Y0037949D01*
X0009329Y0038948D02*
X0003523Y0038948D01*
X0003523Y0039946D02*
X0008331Y0039946D01*
X0007923Y0040945D02*
X0003523Y0040945D01*
X0003523Y0041943D02*
X0007923Y0041943D01*
X0007923Y0042942D02*
X0003523Y0042942D01*
X0003523Y0043940D02*
X0007923Y0043940D01*
X0007923Y0044939D02*
X0003523Y0044939D01*
X0003523Y0045937D02*
X0007923Y0045937D01*
X0007923Y0046936D02*
X0003523Y0046936D01*
X0003523Y0047934D02*
X0007923Y0047934D01*
X0007923Y0048933D02*
X0003523Y0048933D01*
X0003523Y0049932D02*
X0007923Y0049932D01*
X0008907Y0050930D02*
X0003523Y0050930D01*
X0003523Y0051929D02*
X0009906Y0051929D01*
X0009823Y0052927D02*
X0003523Y0052927D01*
X0003523Y0053926D02*
X0009823Y0053926D01*
X0009823Y0054924D02*
X0003523Y0054924D01*
X0003523Y0055923D02*
X0009882Y0055923D01*
X0010880Y0056921D02*
X0003523Y0056921D01*
X0003523Y0057920D02*
X0011879Y0057920D01*
X0012376Y0059300D02*
X0009623Y0062053D01*
X0009623Y0063500D01*
X0013823Y0063500D01*
X0013823Y0059300D01*
X0012376Y0059300D01*
X0011760Y0059917D02*
X0003523Y0059917D01*
X0003523Y0060915D02*
X0010761Y0060915D01*
X0009763Y0061914D02*
X0003523Y0061914D01*
X0003523Y0062912D02*
X0009623Y0062912D01*
X0009623Y0064909D02*
X0003523Y0064909D01*
X0003523Y0063911D02*
X0013823Y0063911D01*
X0013823Y0064909D02*
X0014823Y0064909D01*
X0014823Y0065908D02*
X0013823Y0065908D01*
X0013823Y0066906D02*
X0014823Y0066906D01*
X0014823Y0067905D02*
X0013823Y0067905D01*
X0011581Y0067905D02*
X0003523Y0067905D01*
X0003523Y0068903D02*
X0031681Y0068903D01*
X0032679Y0069902D02*
X0011193Y0069902D01*
X0013357Y0070900D02*
X0033678Y0070900D01*
X0034676Y0071899D02*
X0014355Y0071899D01*
X0015204Y0072897D02*
X0035675Y0072897D01*
X0036823Y0071500D02*
X0044323Y0071500D01*
X0051823Y0079000D01*
X0056523Y0077100D02*
X0074523Y0077100D01*
X0079023Y0072600D01*
X0079323Y0072000D01*
X0079923Y0071700D01*
X0088923Y0062700D01*
X0088923Y0060000D01*
X0089323Y0059500D01*
X0089823Y0060000D01*
X0086654Y0061914D02*
X0079737Y0061914D01*
X0080480Y0060915D02*
X0086273Y0060915D01*
X0086273Y0059917D02*
X0080573Y0059917D01*
X0077698Y0059917D02*
X0076948Y0059917D01*
X0076948Y0060915D02*
X0077698Y0060915D01*
X0077698Y0061914D02*
X0076948Y0061914D01*
X0074909Y0061914D02*
X0073491Y0061914D01*
X0084168Y0064909D02*
X0054978Y0064909D01*
X0053979Y0063911D02*
X0085167Y0063911D01*
X0086165Y0062912D02*
X0060206Y0062912D01*
X0055440Y0062912D02*
X0053206Y0062912D01*
X0054123Y0061914D02*
X0054523Y0061914D01*
X0054523Y0060915D02*
X0054123Y0060915D01*
X0054123Y0059917D02*
X0054523Y0059917D01*
X0054523Y0058918D02*
X0054123Y0058918D01*
X0054123Y0057920D02*
X0054523Y0057920D01*
X0054523Y0056921D02*
X0054123Y0056921D01*
X0055623Y0054600D02*
X0057423Y0052800D01*
X0057423Y0044700D01*
X0054723Y0042000D01*
X0051123Y0041500D01*
X0051123Y0042000D01*
X0054723Y0042000D01*
X0051123Y0046500D02*
X0049323Y0044700D01*
X0039423Y0044700D01*
X0039323Y0044500D01*
X0028819Y0031958D02*
X0027873Y0031958D01*
X0027909Y0030960D02*
X0029818Y0030960D01*
X0028907Y0029961D02*
X0030816Y0029961D01*
X0029906Y0028963D02*
X0031815Y0028963D01*
X0030904Y0027964D02*
X0032813Y0027964D01*
X0031903Y0026966D02*
X0033812Y0026966D01*
X0032901Y0025967D02*
X0034810Y0025967D01*
X0033900Y0024969D02*
X0035809Y0024969D01*
X0034898Y0023970D02*
X0036807Y0023970D01*
X0035897Y0022972D02*
X0037806Y0022972D01*
X0036895Y0021973D02*
X0038804Y0021973D01*
X0039803Y0020975D02*
X0037718Y0020975D01*
X0038716Y0019976D02*
X0040801Y0019976D01*
X0041800Y0018978D02*
X0039458Y0018978D01*
X0039458Y0017979D02*
X0042798Y0017979D01*
X0041223Y0016981D02*
X0039458Y0016981D01*
X0039458Y0015982D02*
X0040694Y0015982D01*
X0040035Y0015793D02*
X0038987Y0014746D01*
X0038987Y0011183D01*
X0040035Y0010136D01*
X0042863Y0012964D01*
X0040035Y0015793D01*
X0040844Y0014984D02*
X0041693Y0014984D01*
X0041842Y0013985D02*
X0042691Y0013985D01*
X0042841Y0012987D02*
X0042885Y0012987D01*
X0043287Y0012964D02*
X0040787Y0012964D01*
X0036823Y0009000D01*
X0029752Y0009000D01*
X0028287Y0010464D01*
X0027863Y0010464D02*
X0028287Y0010040D01*
X0025459Y0007212D01*
X0026506Y0006164D01*
X0030069Y0006164D01*
X0031116Y0007212D01*
X0028287Y0010040D01*
X0028712Y0010464D01*
X0031540Y0007636D01*
X0032587Y0008683D01*
X0032587Y0012246D01*
X0031540Y0013293D01*
X0028712Y0010464D01*
X0028287Y0010889D01*
X0027863Y0010464D01*
X0025035Y0007636D01*
X0023987Y0008683D01*
X0023987Y0012246D01*
X0025035Y0013293D01*
X0027863Y0010464D01*
X0028287Y0010889D02*
X0025459Y0013717D01*
X0026506Y0014764D01*
X0030069Y0014764D01*
X0031116Y0013717D01*
X0028287Y0010889D01*
X0028187Y0010990D02*
X0027338Y0010990D01*
X0027390Y0009991D02*
X0028238Y0009991D01*
X0028337Y0009991D02*
X0029185Y0009991D01*
X0029237Y0010990D02*
X0028388Y0010990D01*
X0029387Y0011988D02*
X0030235Y0011988D01*
X0032587Y0011988D02*
X0038987Y0011988D01*
X0039181Y0010990D02*
X0032587Y0010990D01*
X0032587Y0009991D02*
X0040738Y0009991D01*
X0040888Y0010990D02*
X0041737Y0010990D01*
X0041887Y0011988D02*
X0042735Y0011988D01*
X0043839Y0011988D02*
X0044688Y0011988D01*
X0044838Y0010990D02*
X0045687Y0010990D01*
X0045837Y0009991D02*
X0075786Y0009991D01*
X0074788Y0010990D02*
X0047394Y0010990D01*
X0047587Y0011988D02*
X0073789Y0011988D01*
X0072791Y0012987D02*
X0072135Y0012987D01*
X0064011Y0012987D02*
X0055855Y0012987D01*
X0056854Y0013985D02*
X0063998Y0013985D01*
X0063294Y0014984D02*
X0057852Y0014984D01*
X0058851Y0015982D02*
X0062295Y0015982D01*
X0061297Y0016981D02*
X0059849Y0016981D01*
X0063392Y0019976D02*
X0064348Y0019976D01*
X0072277Y0024969D02*
X0073309Y0024969D01*
X0072310Y0025967D02*
X0071964Y0025967D01*
X0076403Y0026966D02*
X0083495Y0026966D01*
X0086370Y0029000D02*
X0076823Y0029000D01*
X0069323Y0036500D01*
X0069323Y0039000D01*
X0084323Y0039000D01*
X0084823Y0038500D01*
X0089323Y0038500D01*
X0095322Y0034954D02*
X0099523Y0034954D01*
X0099523Y0035952D02*
X0096123Y0035952D01*
X0096123Y0036951D02*
X0099523Y0036951D01*
X0099523Y0037949D02*
X0096123Y0037949D01*
X0096123Y0038948D02*
X0098793Y0038948D01*
X0098273Y0039946D02*
X0096123Y0039946D01*
X0096123Y0040945D02*
X0098273Y0040945D01*
X0098273Y0041943D02*
X0096123Y0041943D01*
X0096123Y0042942D02*
X0098273Y0042942D01*
X0098681Y0043940D02*
X0096123Y0043940D01*
X0103853Y0038948D02*
X0104510Y0038948D01*
X0104433Y0033955D02*
X0103950Y0033955D01*
X0098696Y0033955D02*
X0094324Y0033955D01*
X0093325Y0032957D02*
X0098273Y0032957D01*
X0098273Y0031958D02*
X0094454Y0031958D01*
X0095300Y0030960D02*
X0098237Y0030960D01*
X0097523Y0029961D02*
X0095351Y0029961D01*
X0095351Y0028713D02*
X0092563Y0028713D01*
X0092563Y0025925D01*
X0094048Y0025925D01*
X0094430Y0026027D01*
X0094772Y0026225D01*
X0095051Y0026504D01*
X0095248Y0026846D01*
X0095351Y0027228D01*
X0095351Y0028713D01*
X0095351Y0027964D02*
X0097523Y0027964D01*
X0097523Y0026966D02*
X0095280Y0026966D01*
X0094205Y0025967D02*
X0097523Y0025967D01*
X0097523Y0024969D02*
X0078400Y0024969D01*
X0079398Y0023970D02*
X0083924Y0023970D01*
X0087651Y0023970D02*
X0096419Y0023970D01*
X0092563Y0025967D02*
X0091988Y0025967D01*
X0091988Y0026966D02*
X0092563Y0026966D01*
X0092563Y0027964D02*
X0091988Y0027964D01*
X0092276Y0029000D02*
X0092276Y0029453D01*
X0092563Y0028963D02*
X0097523Y0028963D01*
X0092563Y0031958D02*
X0091988Y0031958D01*
X0089271Y0026966D02*
X0089245Y0026966D01*
X0090346Y0025967D02*
X0077401Y0025967D01*
X0077409Y0030960D02*
X0083495Y0030960D01*
X0103868Y0028963D02*
X0104495Y0028963D01*
X0091032Y0008993D02*
X0045397Y0008993D01*
X0041178Y0008993D02*
X0032587Y0008993D01*
X0031898Y0007994D02*
X0097511Y0007994D01*
X0097780Y0006996D02*
X0030900Y0006996D01*
X0031182Y0007994D02*
X0030334Y0007994D01*
X0030184Y0008993D02*
X0029335Y0008993D01*
X0027240Y0008993D02*
X0026391Y0008993D01*
X0026241Y0007994D02*
X0025393Y0007994D01*
X0024677Y0007994D02*
X0016135Y0007994D01*
X0016135Y0008993D02*
X0023987Y0008993D01*
X0023987Y0009991D02*
X0016135Y0009991D01*
X0015872Y0010990D02*
X0023987Y0010990D01*
X0023987Y0011988D02*
X0015458Y0011988D01*
X0014970Y0012987D02*
X0024728Y0012987D01*
X0025341Y0012987D02*
X0026190Y0012987D01*
X0025727Y0013985D02*
X0013971Y0013985D01*
X0013823Y0015021D02*
X0013156Y0015154D01*
X0012428Y0015455D01*
X0011773Y0015893D01*
X0011216Y0016450D01*
X0010778Y0017105D01*
X0010477Y0017833D01*
X0010344Y0018500D01*
X0013823Y0018500D01*
X0014823Y0018500D01*
X0014823Y0019500D01*
X0018302Y0019500D01*
X0018169Y0020167D01*
X0017868Y0020895D01*
X0017430Y0021550D01*
X0016873Y0022107D01*
X0016218Y0022545D01*
X0015490Y0022846D01*
X0014823Y0022979D01*
X0014823Y0019500D01*
X0013823Y0019500D01*
X0013823Y0022979D01*
X0013156Y0022846D01*
X0012428Y0022545D01*
X0011773Y0022107D01*
X0011216Y0021550D01*
X0010778Y0020895D01*
X0010477Y0020167D01*
X0010344Y0019500D01*
X0013823Y0019500D01*
X0013823Y0018500D01*
X0013823Y0015021D01*
X0013823Y0015982D02*
X0014823Y0015982D01*
X0014823Y0015021D02*
X0015490Y0015154D01*
X0016218Y0015455D01*
X0016873Y0015893D01*
X0017430Y0016450D01*
X0017868Y0017105D01*
X0018169Y0017833D01*
X0018302Y0018500D01*
X0014823Y0018500D01*
X0014823Y0015021D01*
X0012677Y0014984D02*
X0032112Y0014984D01*
X0031259Y0015982D02*
X0016962Y0015982D01*
X0017784Y0016981D02*
X0031259Y0016981D01*
X0031259Y0017979D02*
X0018198Y0017979D01*
X0018207Y0019976D02*
X0032001Y0019976D01*
X0032803Y0020975D02*
X0017814Y0020975D01*
X0017007Y0021973D02*
X0031804Y0021973D01*
X0030806Y0022972D02*
X0014859Y0022972D01*
X0014823Y0022972D02*
X0013823Y0022972D01*
X0013787Y0022972D02*
X0003523Y0022972D01*
X0003523Y0023970D02*
X0029807Y0023970D01*
X0028809Y0024969D02*
X0003523Y0024969D01*
X0003523Y0025967D02*
X0027810Y0025967D01*
X0026812Y0026966D02*
X0003523Y0026966D01*
X0003523Y0027964D02*
X0025813Y0027964D01*
X0022278Y0028963D02*
X0021368Y0028963D01*
X0018823Y0031500D02*
X0018723Y0032100D01*
X0009723Y0041100D01*
X0014322Y0033955D02*
X0003523Y0033955D01*
X0003523Y0032957D02*
X0015321Y0032957D01*
X0015773Y0031958D02*
X0003523Y0031958D01*
X0003523Y0030960D02*
X0015773Y0030960D01*
X0015773Y0029961D02*
X0003523Y0029961D01*
X0003523Y0028963D02*
X0016278Y0028963D01*
X0024823Y0031500D02*
X0035359Y0020964D01*
X0035359Y0017536D01*
X0038605Y0014984D02*
X0039226Y0014984D01*
X0038987Y0013985D02*
X0037606Y0013985D01*
X0038987Y0012987D02*
X0031846Y0012987D01*
X0031234Y0012987D02*
X0030385Y0012987D01*
X0030848Y0013985D02*
X0033111Y0013985D01*
X0031259Y0018978D02*
X0014823Y0018978D01*
X0014823Y0017979D02*
X0013823Y0017979D01*
X0013823Y0016981D02*
X0014823Y0016981D01*
X0013823Y0018978D02*
X0003523Y0018978D01*
X0003523Y0017979D02*
X0010448Y0017979D01*
X0010861Y0016981D02*
X0003523Y0016981D01*
X0003523Y0015982D02*
X0011684Y0015982D01*
X0010439Y0019976D02*
X0003523Y0019976D01*
X0003523Y0020975D02*
X0010832Y0020975D01*
X0011639Y0021973D02*
X0003523Y0021973D01*
X0003523Y0014984D02*
X0005969Y0014984D01*
X0004675Y0013985D02*
X0003523Y0013985D01*
X0003523Y0012987D02*
X0003676Y0012987D01*
X0013823Y0019976D02*
X0014823Y0019976D01*
X0014823Y0020975D02*
X0013823Y0020975D01*
X0013823Y0021973D02*
X0014823Y0021973D01*
X0025023Y0031200D02*
X0024823Y0031500D01*
X0047587Y0012987D02*
X0047791Y0012987D01*
X0027188Y0011988D02*
X0026339Y0011988D01*
X0025675Y0006996D02*
X0015866Y0006996D01*
X0015452Y0005997D02*
X0098194Y0005997D01*
X0098691Y0004999D02*
X0014955Y0004999D01*
X0013956Y0004000D02*
X0099690Y0004000D01*
X0086273Y0054924D02*
X0060544Y0054924D01*
X0051123Y0059100D02*
X0050823Y0059000D01*
X0052323Y0056750D02*
X0049323Y0056750D01*
X0049323Y0061250D01*
X0052323Y0061250D01*
X0052323Y0056750D01*
X0052323Y0057749D02*
X0049323Y0057749D01*
X0049323Y0058748D02*
X0052323Y0058748D01*
X0052323Y0059747D02*
X0049323Y0059747D01*
X0049323Y0060746D02*
X0052323Y0060746D01*
X0051123Y0059100D02*
X0051123Y0063600D01*
X0059223Y0071700D01*
X0059323Y0072000D01*
X0056523Y0077100D02*
X0043923Y0064500D01*
X0039323Y0064500D01*
X0036273Y0064909D02*
X0032778Y0064909D01*
X0033776Y0065908D02*
X0036273Y0065908D01*
X0036647Y0066906D02*
X0034775Y0066906D01*
X0035773Y0067905D02*
X0044782Y0067905D01*
X0045781Y0068903D02*
X0036772Y0068903D01*
X0036823Y0071500D02*
X0029323Y0064000D01*
X0024323Y0064000D01*
X0027781Y0066906D02*
X0029684Y0066906D01*
X0030682Y0067905D02*
X0026782Y0067905D01*
X0021864Y0067905D02*
X0017065Y0067905D01*
X0018064Y0066906D02*
X0020865Y0066906D01*
X0019867Y0065908D02*
X0019023Y0065908D01*
X0019023Y0064909D02*
X0019823Y0064909D01*
X0014823Y0062912D02*
X0013823Y0062912D01*
X0013823Y0061914D02*
X0014823Y0061914D01*
X0014823Y0060915D02*
X0013823Y0060915D01*
X0013823Y0059917D02*
X0014823Y0059917D01*
X0009623Y0065908D02*
X0003523Y0065908D01*
X0003523Y0066906D02*
X0010582Y0066906D01*
X0007452Y0069902D02*
X0003523Y0069902D01*
X0003523Y0070900D02*
X0005289Y0070900D01*
X0004291Y0071899D02*
X0003523Y0071899D01*
X0013572Y0081884D02*
X0100074Y0081884D01*
X0111823Y0084000D02*
X0001823Y0084000D01*
X0031779Y0063911D02*
X0036273Y0063911D01*
X0036273Y0062912D02*
X0030781Y0062912D01*
X0028601Y0061914D02*
X0036827Y0061914D01*
X0036656Y0060915D02*
X0027602Y0060915D01*
X0027794Y0059917D02*
X0026604Y0059917D01*
X0026796Y0058918D02*
X0003523Y0058918D01*
X0041999Y0066906D02*
X0043784Y0066906D01*
X0045270Y0069902D02*
X0046779Y0069902D01*
X0046269Y0070900D02*
X0047778Y0070900D01*
X0106193Y0069902D02*
X0110123Y0069902D01*
X0110123Y0070900D02*
X0108357Y0070900D01*
X0109355Y0071899D02*
X0110123Y0071899D01*
D13*
X0099323Y0021500D03*
X0014323Y0019000D03*
D14*
X0017510Y0032813D02*
X0020136Y0032813D01*
X0020136Y0030187D01*
X0017510Y0030187D01*
X0017510Y0032813D01*
X0017510Y0031061D02*
X0020136Y0031061D01*
X0020136Y0031935D02*
X0017510Y0031935D01*
X0017510Y0032809D02*
X0020136Y0032809D01*
X0023510Y0032813D02*
X0026136Y0032813D01*
X0026136Y0030187D01*
X0023510Y0030187D01*
X0023510Y0032813D01*
X0023510Y0031061D02*
X0026136Y0031061D01*
X0026136Y0031935D02*
X0023510Y0031935D01*
X0023510Y0032809D02*
X0026136Y0032809D01*
X0040636Y0037187D02*
X0040636Y0039813D01*
X0040636Y0037187D02*
X0038010Y0037187D01*
X0038010Y0039813D01*
X0040636Y0039813D01*
X0040636Y0038061D02*
X0038010Y0038061D01*
X0038010Y0038935D02*
X0040636Y0038935D01*
X0040636Y0039809D02*
X0038010Y0039809D01*
X0040636Y0043187D02*
X0040636Y0045813D01*
X0040636Y0043187D02*
X0038010Y0043187D01*
X0038010Y0045813D01*
X0040636Y0045813D01*
X0040636Y0044061D02*
X0038010Y0044061D01*
X0038010Y0044935D02*
X0040636Y0044935D01*
X0040636Y0045809D02*
X0038010Y0045809D01*
X0040636Y0057187D02*
X0040636Y0059813D01*
X0040636Y0057187D02*
X0038010Y0057187D01*
X0038010Y0059813D01*
X0040636Y0059813D01*
X0040636Y0058061D02*
X0038010Y0058061D01*
X0038010Y0058935D02*
X0040636Y0058935D01*
X0040636Y0059809D02*
X0038010Y0059809D01*
X0040636Y0063187D02*
X0040636Y0065813D01*
X0040636Y0063187D02*
X0038010Y0063187D01*
X0038010Y0065813D01*
X0040636Y0065813D01*
X0040636Y0064061D02*
X0038010Y0064061D01*
X0038010Y0064935D02*
X0040636Y0064935D01*
X0040636Y0065809D02*
X0038010Y0065809D01*
X0070010Y0060313D02*
X0072636Y0060313D01*
X0072636Y0057687D01*
X0070010Y0057687D01*
X0070010Y0060313D01*
X0070010Y0058561D02*
X0072636Y0058561D01*
X0072636Y0059435D02*
X0070010Y0059435D01*
X0070010Y0060309D02*
X0072636Y0060309D01*
X0076010Y0060313D02*
X0078636Y0060313D01*
X0078636Y0057687D01*
X0076010Y0057687D01*
X0076010Y0060313D01*
X0076010Y0058561D02*
X0078636Y0058561D01*
X0078636Y0059435D02*
X0076010Y0059435D01*
X0076010Y0060309D02*
X0078636Y0060309D01*
X0090636Y0060813D02*
X0090636Y0058187D01*
X0088010Y0058187D01*
X0088010Y0060813D01*
X0090636Y0060813D01*
X0090636Y0059061D02*
X0088010Y0059061D01*
X0088010Y0059935D02*
X0090636Y0059935D01*
X0090636Y0060809D02*
X0088010Y0060809D01*
X0090636Y0054813D02*
X0090636Y0052187D01*
X0088010Y0052187D01*
X0088010Y0054813D01*
X0090636Y0054813D01*
X0090636Y0053061D02*
X0088010Y0053061D01*
X0088010Y0053935D02*
X0090636Y0053935D01*
X0090636Y0054809D02*
X0088010Y0054809D01*
X0090636Y0045813D02*
X0090636Y0043187D01*
X0088010Y0043187D01*
X0088010Y0045813D01*
X0090636Y0045813D01*
X0090636Y0044061D02*
X0088010Y0044061D01*
X0088010Y0044935D02*
X0090636Y0044935D01*
X0090636Y0045809D02*
X0088010Y0045809D01*
X0090636Y0039813D02*
X0090636Y0037187D01*
X0088010Y0037187D01*
X0088010Y0039813D01*
X0090636Y0039813D01*
X0090636Y0038061D02*
X0088010Y0038061D01*
X0088010Y0038935D02*
X0090636Y0038935D01*
X0090636Y0039809D02*
X0088010Y0039809D01*
X0100010Y0042813D02*
X0102636Y0042813D01*
X0102636Y0040187D01*
X0100010Y0040187D01*
X0100010Y0042813D01*
X0100010Y0041061D02*
X0102636Y0041061D01*
X0102636Y0041935D02*
X0100010Y0041935D01*
X0100010Y0042809D02*
X0102636Y0042809D01*
X0106010Y0042813D02*
X0108636Y0042813D01*
X0108636Y0040187D01*
X0106010Y0040187D01*
X0106010Y0042813D01*
X0106010Y0041061D02*
X0108636Y0041061D01*
X0108636Y0041935D02*
X0106010Y0041935D01*
X0106010Y0042809D02*
X0108636Y0042809D01*
X0108636Y0032813D02*
X0106010Y0032813D01*
X0108636Y0032813D02*
X0108636Y0030187D01*
X0106010Y0030187D01*
X0106010Y0032813D01*
X0106010Y0031061D02*
X0108636Y0031061D01*
X0108636Y0031935D02*
X0106010Y0031935D01*
X0106010Y0032809D02*
X0108636Y0032809D01*
X0102636Y0032813D02*
X0100010Y0032813D01*
X0102636Y0032813D02*
X0102636Y0030187D01*
X0100010Y0030187D01*
X0100010Y0032813D01*
X0100010Y0031061D02*
X0102636Y0031061D01*
X0102636Y0031935D02*
X0100010Y0031935D01*
X0100010Y0032809D02*
X0102636Y0032809D01*
D15*
X0068073Y0016313D03*
D16*
X0068073Y0024187D03*
D17*
X0087466Y0020404D02*
X0088026Y0020964D01*
X0088026Y0019108D01*
X0086715Y0017797D01*
X0084859Y0017797D01*
X0083548Y0019108D01*
X0083548Y0020964D01*
X0084859Y0022275D01*
X0086715Y0022275D01*
X0088026Y0020964D01*
X0087186Y0020616D01*
X0087186Y0019456D01*
X0086367Y0018637D01*
X0085207Y0018637D01*
X0084388Y0019456D01*
X0084388Y0020616D01*
X0085207Y0021435D01*
X0086367Y0021435D01*
X0087186Y0020616D01*
X0086346Y0020268D01*
X0086346Y0019804D01*
X0086019Y0019477D01*
X0085555Y0019477D01*
X0085228Y0019804D01*
X0085228Y0020268D01*
X0085555Y0020595D01*
X0086019Y0020595D01*
X0086346Y0020268D01*
X0094538Y0013332D02*
X0095098Y0013892D01*
X0095098Y0012036D01*
X0093787Y0010725D01*
X0091931Y0010725D01*
X0090620Y0012036D01*
X0090620Y0013892D01*
X0091931Y0015203D01*
X0093787Y0015203D01*
X0095098Y0013892D01*
X0094258Y0013544D01*
X0094258Y0012384D01*
X0093439Y0011565D01*
X0092279Y0011565D01*
X0091460Y0012384D01*
X0091460Y0013544D01*
X0092279Y0014363D01*
X0093439Y0014363D01*
X0094258Y0013544D01*
X0093418Y0013196D01*
X0093418Y0012732D01*
X0093091Y0012405D01*
X0092627Y0012405D01*
X0092300Y0012732D01*
X0092300Y0013196D01*
X0092627Y0013523D01*
X0093091Y0013523D01*
X0093418Y0013196D01*
X0049991Y0021715D02*
X0049431Y0022275D01*
X0051287Y0022275D01*
X0052598Y0020964D01*
X0052598Y0019108D01*
X0051287Y0017797D01*
X0049431Y0017797D01*
X0048120Y0019108D01*
X0048120Y0020964D01*
X0049431Y0022275D01*
X0049779Y0021435D01*
X0050939Y0021435D01*
X0051758Y0020616D01*
X0051758Y0019456D01*
X0050939Y0018637D01*
X0049779Y0018637D01*
X0048960Y0019456D01*
X0048960Y0020616D01*
X0049779Y0021435D01*
X0050127Y0020595D01*
X0050591Y0020595D01*
X0050918Y0020268D01*
X0050918Y0019804D01*
X0050591Y0019477D01*
X0050127Y0019477D01*
X0049800Y0019804D01*
X0049800Y0020268D01*
X0050127Y0020595D01*
X0042919Y0014643D02*
X0042359Y0015203D01*
X0044215Y0015203D01*
X0045526Y0013892D01*
X0045526Y0012036D01*
X0044215Y0010725D01*
X0042359Y0010725D01*
X0041048Y0012036D01*
X0041048Y0013892D01*
X0042359Y0015203D01*
X0042707Y0014363D01*
X0043867Y0014363D01*
X0044686Y0013544D01*
X0044686Y0012384D01*
X0043867Y0011565D01*
X0042707Y0011565D01*
X0041888Y0012384D01*
X0041888Y0013544D01*
X0042707Y0014363D01*
X0043055Y0013523D01*
X0043519Y0013523D01*
X0043846Y0013196D01*
X0043846Y0012732D01*
X0043519Y0012405D01*
X0043055Y0012405D01*
X0042728Y0012732D01*
X0042728Y0013196D01*
X0043055Y0013523D01*
X0034991Y0019215D02*
X0034431Y0019775D01*
X0036287Y0019775D01*
X0037598Y0018464D01*
X0037598Y0016608D01*
X0036287Y0015297D01*
X0034431Y0015297D01*
X0033120Y0016608D01*
X0033120Y0018464D01*
X0034431Y0019775D01*
X0034779Y0018935D01*
X0035939Y0018935D01*
X0036758Y0018116D01*
X0036758Y0016956D01*
X0035939Y0016137D01*
X0034779Y0016137D01*
X0033960Y0016956D01*
X0033960Y0018116D01*
X0034779Y0018935D01*
X0035127Y0018095D01*
X0035591Y0018095D01*
X0035918Y0017768D01*
X0035918Y0017304D01*
X0035591Y0016977D01*
X0035127Y0016977D01*
X0034800Y0017304D01*
X0034800Y0017768D01*
X0035127Y0018095D01*
X0027919Y0012143D02*
X0027359Y0012703D01*
X0029215Y0012703D01*
X0030526Y0011392D01*
X0030526Y0009536D01*
X0029215Y0008225D01*
X0027359Y0008225D01*
X0026048Y0009536D01*
X0026048Y0011392D01*
X0027359Y0012703D01*
X0027707Y0011863D01*
X0028867Y0011863D01*
X0029686Y0011044D01*
X0029686Y0009884D01*
X0028867Y0009065D01*
X0027707Y0009065D01*
X0026888Y0009884D01*
X0026888Y0011044D01*
X0027707Y0011863D01*
X0028055Y0011023D01*
X0028519Y0011023D01*
X0028846Y0010696D01*
X0028846Y0010232D01*
X0028519Y0009905D01*
X0028055Y0009905D01*
X0027728Y0010232D01*
X0027728Y0010696D01*
X0028055Y0011023D01*
D18*
X0086370Y0029000D03*
X0092276Y0029000D03*
D19*
X0024323Y0044000D03*
D20*
X0014323Y0044000D03*
X0014323Y0054000D03*
X0024323Y0054000D03*
X0024323Y0064000D03*
X0014323Y0064000D03*
D21*
X0051123Y0051500D03*
X0051123Y0046500D03*
X0051123Y0041500D03*
X0051123Y0036500D03*
X0077623Y0036500D03*
X0077623Y0041500D03*
X0077623Y0046500D03*
X0077623Y0051500D03*
D22*
X0069323Y0071000D03*
X0079323Y0072000D03*
X0059323Y0072000D03*
M02*
