G75*
%MOIN*%
%OFA0B0*%
%FSLAX25Y25*%
%IPPOS*%
%LPD*%
%AMOC8*
5,1,8,0,0,1.08239X$1,22.5*
%
%ADD10C,0.11824*%
%ADD11C,0.05800*%
%ADD12C,0.01075*%
%ADD13R,0.06350X0.06350*%
%ADD14C,0.06350*%
%ADD15C,0.01280*%
%ADD16R,0.03950X0.03950*%
%ADD17C,0.07200*%
%ADD18OC8,0.07200*%
%ADD19C,0.01200*%
%ADD20R,0.09500X0.03200*%
%ADD21C,0.08200*%
D10*
X0009323Y0009000D03*
X0104323Y0009000D03*
X0104323Y0076500D03*
X0009323Y0076500D03*
D11*
X0014323Y0019000D03*
X0099323Y0021500D03*
D12*
X0099710Y0033113D02*
X0102936Y0033113D01*
X0102936Y0029887D01*
X0099710Y0029887D01*
X0099710Y0033113D01*
X0099710Y0030961D02*
X0102936Y0030961D01*
X0102936Y0032035D02*
X0099710Y0032035D01*
X0099710Y0033109D02*
X0102936Y0033109D01*
X0105710Y0033113D02*
X0108936Y0033113D01*
X0108936Y0029887D01*
X0105710Y0029887D01*
X0105710Y0033113D01*
X0105710Y0030961D02*
X0108936Y0030961D01*
X0108936Y0032035D02*
X0105710Y0032035D01*
X0105710Y0033109D02*
X0108936Y0033109D01*
X0108936Y0043113D02*
X0105710Y0043113D01*
X0108936Y0043113D02*
X0108936Y0039887D01*
X0105710Y0039887D01*
X0105710Y0043113D01*
X0105710Y0040961D02*
X0108936Y0040961D01*
X0108936Y0042035D02*
X0105710Y0042035D01*
X0105710Y0043109D02*
X0108936Y0043109D01*
X0102936Y0043113D02*
X0099710Y0043113D01*
X0102936Y0043113D02*
X0102936Y0039887D01*
X0099710Y0039887D01*
X0099710Y0043113D01*
X0099710Y0040961D02*
X0102936Y0040961D01*
X0102936Y0042035D02*
X0099710Y0042035D01*
X0099710Y0043109D02*
X0102936Y0043109D01*
X0090936Y0042887D02*
X0090936Y0046113D01*
X0090936Y0042887D02*
X0087710Y0042887D01*
X0087710Y0046113D01*
X0090936Y0046113D01*
X0090936Y0043961D02*
X0087710Y0043961D01*
X0087710Y0045035D02*
X0090936Y0045035D01*
X0090936Y0046109D02*
X0087710Y0046109D01*
X0090936Y0051887D02*
X0090936Y0055113D01*
X0090936Y0051887D02*
X0087710Y0051887D01*
X0087710Y0055113D01*
X0090936Y0055113D01*
X0090936Y0052961D02*
X0087710Y0052961D01*
X0087710Y0054035D02*
X0090936Y0054035D01*
X0090936Y0055109D02*
X0087710Y0055109D01*
X0090936Y0057887D02*
X0090936Y0061113D01*
X0090936Y0057887D02*
X0087710Y0057887D01*
X0087710Y0061113D01*
X0090936Y0061113D01*
X0090936Y0058961D02*
X0087710Y0058961D01*
X0087710Y0060035D02*
X0090936Y0060035D01*
X0090936Y0061109D02*
X0087710Y0061109D01*
X0078936Y0060613D02*
X0075710Y0060613D01*
X0078936Y0060613D02*
X0078936Y0057387D01*
X0075710Y0057387D01*
X0075710Y0060613D01*
X0075710Y0058461D02*
X0078936Y0058461D01*
X0078936Y0059535D02*
X0075710Y0059535D01*
X0075710Y0060609D02*
X0078936Y0060609D01*
X0072936Y0060613D02*
X0069710Y0060613D01*
X0072936Y0060613D02*
X0072936Y0057387D01*
X0069710Y0057387D01*
X0069710Y0060613D01*
X0069710Y0058461D02*
X0072936Y0058461D01*
X0072936Y0059535D02*
X0069710Y0059535D01*
X0069710Y0060609D02*
X0072936Y0060609D01*
X0090936Y0040113D02*
X0090936Y0036887D01*
X0087710Y0036887D01*
X0087710Y0040113D01*
X0090936Y0040113D01*
X0090936Y0037961D02*
X0087710Y0037961D01*
X0087710Y0039035D02*
X0090936Y0039035D01*
X0090936Y0040109D02*
X0087710Y0040109D01*
X0040936Y0040113D02*
X0040936Y0036887D01*
X0037710Y0036887D01*
X0037710Y0040113D01*
X0040936Y0040113D01*
X0040936Y0037961D02*
X0037710Y0037961D01*
X0037710Y0039035D02*
X0040936Y0039035D01*
X0040936Y0040109D02*
X0037710Y0040109D01*
X0040936Y0042887D02*
X0040936Y0046113D01*
X0040936Y0042887D02*
X0037710Y0042887D01*
X0037710Y0046113D01*
X0040936Y0046113D01*
X0040936Y0043961D02*
X0037710Y0043961D01*
X0037710Y0045035D02*
X0040936Y0045035D01*
X0040936Y0046109D02*
X0037710Y0046109D01*
X0040936Y0056887D02*
X0040936Y0060113D01*
X0040936Y0056887D02*
X0037710Y0056887D01*
X0037710Y0060113D01*
X0040936Y0060113D01*
X0040936Y0057961D02*
X0037710Y0057961D01*
X0037710Y0059035D02*
X0040936Y0059035D01*
X0040936Y0060109D02*
X0037710Y0060109D01*
X0040936Y0062887D02*
X0040936Y0066113D01*
X0040936Y0062887D02*
X0037710Y0062887D01*
X0037710Y0066113D01*
X0040936Y0066113D01*
X0040936Y0063961D02*
X0037710Y0063961D01*
X0037710Y0065035D02*
X0040936Y0065035D01*
X0040936Y0066109D02*
X0037710Y0066109D01*
X0026436Y0033113D02*
X0023210Y0033113D01*
X0026436Y0033113D02*
X0026436Y0029887D01*
X0023210Y0029887D01*
X0023210Y0033113D01*
X0023210Y0030961D02*
X0026436Y0030961D01*
X0026436Y0032035D02*
X0023210Y0032035D01*
X0023210Y0033109D02*
X0026436Y0033109D01*
X0020436Y0033113D02*
X0017210Y0033113D01*
X0020436Y0033113D02*
X0020436Y0029887D01*
X0017210Y0029887D01*
X0017210Y0033113D01*
X0017210Y0030961D02*
X0020436Y0030961D01*
X0020436Y0032035D02*
X0017210Y0032035D01*
X0017210Y0033109D02*
X0020436Y0033109D01*
D13*
X0068073Y0016313D03*
D14*
X0068073Y0024187D03*
D15*
X0087706Y0020456D02*
X0088346Y0021096D01*
X0088346Y0018976D01*
X0086847Y0017477D01*
X0084727Y0017477D01*
X0083228Y0018976D01*
X0083228Y0021096D01*
X0084727Y0022595D01*
X0086847Y0022595D01*
X0088346Y0021096D01*
X0087386Y0020699D01*
X0087386Y0019373D01*
X0086450Y0018437D01*
X0085124Y0018437D01*
X0084188Y0019373D01*
X0084188Y0020699D01*
X0085124Y0021635D01*
X0086450Y0021635D01*
X0087386Y0020699D01*
X0086426Y0020301D01*
X0086426Y0019771D01*
X0086052Y0019397D01*
X0085522Y0019397D01*
X0085148Y0019771D01*
X0085148Y0020301D01*
X0085522Y0020675D01*
X0086052Y0020675D01*
X0086426Y0020301D01*
X0094778Y0013384D02*
X0095418Y0014024D01*
X0095418Y0011904D01*
X0093919Y0010405D01*
X0091799Y0010405D01*
X0090300Y0011904D01*
X0090300Y0014024D01*
X0091799Y0015523D01*
X0093919Y0015523D01*
X0095418Y0014024D01*
X0094458Y0013627D01*
X0094458Y0012301D01*
X0093522Y0011365D01*
X0092196Y0011365D01*
X0091260Y0012301D01*
X0091260Y0013627D01*
X0092196Y0014563D01*
X0093522Y0014563D01*
X0094458Y0013627D01*
X0093498Y0013229D01*
X0093498Y0012699D01*
X0093124Y0012325D01*
X0092594Y0012325D01*
X0092220Y0012699D01*
X0092220Y0013229D01*
X0092594Y0013603D01*
X0093124Y0013603D01*
X0093498Y0013229D01*
X0049939Y0021955D02*
X0049299Y0022595D01*
X0051419Y0022595D01*
X0052918Y0021096D01*
X0052918Y0018976D01*
X0051419Y0017477D01*
X0049299Y0017477D01*
X0047800Y0018976D01*
X0047800Y0021096D01*
X0049299Y0022595D01*
X0049696Y0021635D01*
X0051022Y0021635D01*
X0051958Y0020699D01*
X0051958Y0019373D01*
X0051022Y0018437D01*
X0049696Y0018437D01*
X0048760Y0019373D01*
X0048760Y0020699D01*
X0049696Y0021635D01*
X0050094Y0020675D01*
X0050624Y0020675D01*
X0050998Y0020301D01*
X0050998Y0019771D01*
X0050624Y0019397D01*
X0050094Y0019397D01*
X0049720Y0019771D01*
X0049720Y0020301D01*
X0050094Y0020675D01*
X0042867Y0014883D02*
X0042227Y0015523D01*
X0044347Y0015523D01*
X0045846Y0014024D01*
X0045846Y0011904D01*
X0044347Y0010405D01*
X0042227Y0010405D01*
X0040728Y0011904D01*
X0040728Y0014024D01*
X0042227Y0015523D01*
X0042624Y0014563D01*
X0043950Y0014563D01*
X0044886Y0013627D01*
X0044886Y0012301D01*
X0043950Y0011365D01*
X0042624Y0011365D01*
X0041688Y0012301D01*
X0041688Y0013627D01*
X0042624Y0014563D01*
X0043022Y0013603D01*
X0043552Y0013603D01*
X0043926Y0013229D01*
X0043926Y0012699D01*
X0043552Y0012325D01*
X0043022Y0012325D01*
X0042648Y0012699D01*
X0042648Y0013229D01*
X0043022Y0013603D01*
X0034939Y0019455D02*
X0034299Y0020095D01*
X0036419Y0020095D01*
X0037918Y0018596D01*
X0037918Y0016476D01*
X0036419Y0014977D01*
X0034299Y0014977D01*
X0032800Y0016476D01*
X0032800Y0018596D01*
X0034299Y0020095D01*
X0034696Y0019135D01*
X0036022Y0019135D01*
X0036958Y0018199D01*
X0036958Y0016873D01*
X0036022Y0015937D01*
X0034696Y0015937D01*
X0033760Y0016873D01*
X0033760Y0018199D01*
X0034696Y0019135D01*
X0035094Y0018175D01*
X0035624Y0018175D01*
X0035998Y0017801D01*
X0035998Y0017271D01*
X0035624Y0016897D01*
X0035094Y0016897D01*
X0034720Y0017271D01*
X0034720Y0017801D01*
X0035094Y0018175D01*
X0027867Y0012383D02*
X0027227Y0013023D01*
X0029347Y0013023D01*
X0030846Y0011524D01*
X0030846Y0009404D01*
X0029347Y0007905D01*
X0027227Y0007905D01*
X0025728Y0009404D01*
X0025728Y0011524D01*
X0027227Y0013023D01*
X0027624Y0012063D01*
X0028950Y0012063D01*
X0029886Y0011127D01*
X0029886Y0009801D01*
X0028950Y0008865D01*
X0027624Y0008865D01*
X0026688Y0009801D01*
X0026688Y0011127D01*
X0027624Y0012063D01*
X0028022Y0011103D01*
X0028552Y0011103D01*
X0028926Y0010729D01*
X0028926Y0010199D01*
X0028552Y0009825D01*
X0028022Y0009825D01*
X0027648Y0010199D01*
X0027648Y0010729D01*
X0028022Y0011103D01*
D16*
X0086370Y0029000D03*
X0092276Y0029000D03*
D17*
X0024323Y0044000D03*
D18*
X0014323Y0044000D03*
X0014323Y0054000D03*
X0024323Y0054000D03*
X0024323Y0064000D03*
X0014323Y0064000D03*
D19*
X0049023Y0056450D02*
X0052623Y0056450D01*
X0049023Y0056450D02*
X0049023Y0061550D01*
X0052623Y0061550D01*
X0052623Y0056450D01*
X0052623Y0057649D02*
X0049023Y0057649D01*
X0049023Y0058848D02*
X0052623Y0058848D01*
X0052623Y0060047D02*
X0049023Y0060047D01*
X0049023Y0061246D02*
X0052623Y0061246D01*
X0056023Y0056450D02*
X0059623Y0056450D01*
X0056023Y0056450D02*
X0056023Y0061550D01*
X0059623Y0061550D01*
X0059623Y0056450D01*
X0059623Y0057649D02*
X0056023Y0057649D01*
X0056023Y0058848D02*
X0059623Y0058848D01*
X0059623Y0060047D02*
X0056023Y0060047D01*
X0056023Y0061246D02*
X0059623Y0061246D01*
D20*
X0051123Y0051500D03*
X0051123Y0046500D03*
X0051123Y0041500D03*
X0051123Y0036500D03*
X0077623Y0036500D03*
X0077623Y0041500D03*
X0077623Y0046500D03*
X0077623Y0051500D03*
D21*
X0069323Y0071000D03*
X0079323Y0072000D03*
X0059323Y0072000D03*
M02*
